<svg width="1200" height="800" viewBox="0 0 1200 800" fill="none" xmlns="http://www.w3.org/2000/svg">
<path fill-rule="evenodd" clip-rule="evenodd" d="M675.124 227.489V254.805L752.004 273.817V248.709L675.124 227.489ZM676.124 254.022V228.802L751.004 249.47V272.539L676.124 254.022Z" fill="black"/>
<path fill-rule="evenodd" clip-rule="evenodd" d="M755.9 249.784V309.473L788.721 317.046V258.843L755.9 249.784ZM756.9 308.677V251.097L787.721 259.604V315.789L756.9 308.677Z" fill="black"/>
<path fill-rule="evenodd" clip-rule="evenodd" d="M556.815 466.832V644.346L609.212 639.022L611.673 468.494L556.815 466.832ZM557.815 643.239V467.862L610.659 469.464L608.225 638.118L557.815 643.239Z" fill="black"/>
<path fill-rule="evenodd" clip-rule="evenodd" d="M550.288 460.024V655.079L615.74 647.83L618.2 463.61L550.288 460.024ZM551.288 653.963V461.078L617.187 464.558L614.751 646.934L551.288 653.963Z" fill="black"/>
<path fill-rule="evenodd" clip-rule="evenodd" d="M691.442 474.624V630.266L732.422 625.058V476.955L691.442 474.624ZM692.442 479.399V475.683L731.422 477.899V624.177L692.442 629.131V625.25L728.114 621.17V551.694H692.442V547.797L728.114 547.646V481.409L692.442 479.399ZM727.114 620.278L692.442 624.243V552.694H727.114V620.278ZM727.114 546.65L692.442 546.797V480.4L727.114 482.354V546.65Z" fill="black"/>
<path fill-rule="evenodd" clip-rule="evenodd" d="M683.283 467.33V640.35L691.997 639.385L692.004 639.384L737.318 633.683V470.298L683.283 467.33ZM684.283 639.233V468.386L736.318 471.245V632.801L691.887 638.391L691.88 638.392L684.283 639.233Z" fill="black"/>
<path fill-rule="evenodd" clip-rule="evenodd" d="M492.367 478.259L489.9 610.651L530.881 608.142L533.347 479.095L492.367 478.259ZM490.92 609.586L493.348 479.279L532.328 480.074L529.899 607.2L490.92 609.586Z" fill="black"/>
<path fill-rule="evenodd" clip-rule="evenodd" d="M530.89 616.94L489.91 618.613V684.109L530.89 679.091V616.94ZM490.91 682.979V619.573L529.89 617.982V678.206L490.91 682.979Z" fill="black"/>
<path fill-rule="evenodd" clip-rule="evenodd" d="M226.823 0L377.312 50.8135V62.0051L185.49 0H182.238L299.774 37.9927V334.123L284.298 332.167V347.048L872.76 416.512V406.534L870.313 406.225V235.947L881.188 234.528L1021.08 280.084L1022.56 438.231L9.07423 320.944L8.95927 321.937L1022.98 439.286L1112.82 460.391L1.72282 350.185L1.62412 351.18L1119.8 462.089V626.001L1115.09 626.674V469.34L987.621 457.006V648.072L982.094 649.454V457.101L788.536 439.06V679.839L783.005 680.53L781.374 438.335L449.93 408.876V714.684L441.139 716.029V408.148L1.71606 370.58L1.63088 371.577L434.694 408.6L430.806 408.924L430.882 409.837L0.0832609 373.843L0 374.84L430.347 410.796V452.978H427.084V716.818L430.347 716.002V717.679L230.631 748.228V456.264L1.69666 445.636L1.65028 446.635L229.631 457.218V748.158L209.417 742.716V456.741H208.417V736.704L153.116 719.074L151.484 463.584H124.061V464.584H150.49L152.121 719.807L208.417 737.754V743.483L230.103 749.321L430.347 718.691V737.779L436.875 739.411V750.751L440.58 752.604L444.402 751.648V739.411L450.93 737.779V715.542L743.845 670.738V668.476L773.034 664.251V679.03L779.017 680.662V691.222L782.484 692.637L787.089 691.258V681.096H786.54L789.536 680.722V661.863L805.249 659.589L806.883 660.582L971.303 635.024V648.886L977.426 649.907V659.469L981.6 660.398L985.357 659.459V649.669L988.621 648.853V632.331L1023.8 626.863V621.262L1110.82 627.621V633.372L1115.44 634.294L1118.35 633.322V628.171L1164.37 631.534L201.01 800H206.814L1167.94 631.925V635.809L282.134 800H287.621L1168.94 636.641V630.865L1118.58 627.185L1120.8 626.869V604.701L1199.22 609.843V608.841L1120.8 603.698V461.24L1023.56 438.396L1022.08 280.41L1059.61 292.631V286.54L1062.87 284.909V278.537L1062.53 278.417L1062.52 278.412L1058.02 276.791C1058.02 276.791 1058.02 276.79 1058.01 276.785C1058 276.778 1057.97 276.766 1057.94 276.747C1057.9 276.727 1057.85 276.703 1057.8 276.675C1057.75 276.648 1057.69 276.616 1057.63 276.58C1057.47 276.497 1057.28 276.393 1057.05 276.267C1056.88 276.172 1056.69 276.066 1056.47 275.947C1055.48 275.396 1054.03 274.592 1052.19 273.562C1048.51 271.502 1043.22 268.538 1036.71 264.879C1023.68 257.561 1005.74 247.462 985.849 236.257C946.066 213.846 898.479 187.009 866.795 169.131L866.766 169.115L820.117 150.294L772.582 154.463L772.856 154.82L719.059 129.129L426.153 23.8892L380.895 0H378.753L425.749 24.8065L718.673 130.053L773.318 156.149L773.532 155.7L824.398 221.9L350.986 70.832L378.312 63.0699V58.2037L397.696 54.1657L406.328 41.2186L386.95 34.5466L386.624 35.4921L404.777 41.7422L397.091 53.2702L378.312 57.1823V50.0957L229.948 0H226.823ZM344.349 52.4011L376.091 62.6613L306.511 82.4263V63.0707L344.349 52.4011ZM300.774 38.3159L342.632 51.8462L305.511 62.3137V83.7499L306.11 83.5796L305.867 84.3824L814.646 238.76V332.511L796.88 328.979V249.14L627.8 201.54V295.206H628.8V202.86L795.88 249.897V328.78L791.984 328.005V254.033L634.328 210.518V296.66L561.895 282.259V182.239L477.671 159.121V265.514L390.551 248.193V133.295L300.774 107.188V38.3159ZM306.397 83.4982L327.155 77.6017L327.076 77.8546L824.437 232.754L824.436 240.544L825.436 240.545L825.437 232.832L880.735 226.421V233.579L824.979 240.851L306.397 83.4982ZM824.437 231.707L328.448 77.2344L349.246 71.3264L824.436 222.961L824.437 231.707ZM880.834 225.403L825.437 231.825V230.378L881.389 223.185L880.834 225.403ZM881.551 222.156L825.437 229.37L825.436 222.231L825.412 222.223L881.551 215.006V222.156ZM882.551 222.239V215.154C918.946 228.499 978.243 249.525 1018.65 263.851L1018.71 263.873C1036.65 270.236 1050.86 275.274 1057.67 277.728L1061.87 279.24V283.899L882.551 222.239ZM1051.7 274.435L1052.17 274.695C1044.44 271.935 1032.81 267.812 1018.96 262.903C978.312 248.488 918.552 227.299 882.224 213.968L882.109 213.926L878.894 214.34L879.155 214.099L821.919 152.099L866.332 170.018C898.017 187.896 945.587 214.724 985.358 237.128C1005.25 248.333 1023.19 258.432 1036.22 265.751C1042.73 269.41 1048.02 272.375 1051.7 274.435ZM819.841 151.322L878.11 214.44L825.158 221.248L774.486 155.3L819.841 151.322ZM882.404 223.246L1061.08 284.685L1059.07 285.691L881.832 225.534L882.404 223.246ZM881.735 226.557L1058.61 286.59V291.254L881.735 233.655V226.557ZM815.646 332.71V239.064L824.895 241.87L869.313 236.077V406.099L867.049 405.812V342.93L815.646 332.71ZM866.049 343.75V405.686L300.774 334.249V231.364L669.815 304.735L680.418 306.923L680.423 306.924L704.083 311.549L704.085 311.549L866.049 343.75ZM373.233 244.75L300.774 230.344V216.693L373.233 232.787V244.75ZM300.774 215.668V210.159L374.233 225.66V146.343L300.774 125.947V118.825L379.76 140.578V246.048L374.233 244.949V231.985L300.774 215.668ZM373.233 224.427L300.774 209.137V126.985L373.233 147.103V224.427ZM300.774 117.788V108.229L389.551 134.045V247.994L380.76 246.247V139.816L300.774 117.788ZM680.019 305.82L670.412 303.838V293.993L635.328 285.834V282.782L670.412 290.94V226.188L635.328 216.505V211.831L790.984 254.794V327.807L788.721 327.356V320.099L755.9 312.525V320.831L743.029 318.272V275.559L715.92 268.796V312.882L709.576 311.621V266.903L680.019 260.062V305.82ZM635.328 296.859V286.861L669.412 294.787V303.636L635.328 296.859ZM669.412 289.681L635.328 281.755V217.542L669.412 226.95V289.681ZM787.721 320.894V327.158L756.9 321.03V313.782L787.721 320.894ZM742.029 276.34V318.073L716.92 313.081V270.076L742.029 276.34ZM708.576 267.698V311.422L704.278 310.568L704.277 310.567L681.019 306.022V261.32L708.576 267.698ZM560.895 183.001V282.061L554.551 280.799V188.763L486.646 170.547V267.299L478.671 265.713V160.432L560.895 183.001ZM553.551 189.53V280.601L548.024 279.502V267.502L487.646 254.824V250.138L548.024 263.192V193.664L487.646 176.531V171.85L553.551 189.53ZM547.024 268.314V279.303L487.646 267.497V255.845L547.024 268.314ZM547.024 261.952L487.646 249.115V177.571L547.024 194.42V261.952ZM1114.09 470.357V626.707L1105.3 625.975V471.398L1114.09 470.357ZM1104.3 603.619V626.142L1023.8 620.259V463.855L1104.3 471.409V602.616L1080.35 601.046L1090.93 600.014L1103.95 600.827L1104.01 599.829L1091.43 599.043V479.948L1093.87 480.121V472.592L1024.06 467.664L1023.99 468.662L1092.87 473.524V479.048L1024.06 474.191L1023.99 475.188L1090.43 479.878V599.059L1023.97 605.542L1024.07 606.537L1074.21 601.646L1104.3 603.619ZM988.621 460.553L1022.8 463.761V626.007L988.621 631.319V578.816L1001.68 577.953V484.822L988.621 484.105V460.553ZM1000.68 577.017L988.621 577.814V574.451L997.596 573.875V490.533L988.621 490.043V485.106L1000.68 485.769V577.017ZM996.596 572.937L988.621 573.449V571.71L995.154 571.438L994.327 494.615L988.621 494.259V491.045L996.596 491.48V572.937ZM994.143 570.479L988.621 570.709V495.261L993.337 495.555L994.143 570.479ZM988.621 459.549V458.108L1109.91 469.845L1104.79 470.451L988.621 459.549ZM1111.82 632.552V627.694L1117.35 628.098V632.601L1115.37 633.261L1111.82 632.552ZM981.094 458.147V649.504L972.303 648.039V459.612L981.094 458.147ZM977.711 457.697L971.784 458.685L789.536 441.601V440.157L977.711 457.697ZM789.536 473.167V442.605L971.303 459.644V483.153L789.536 473.167ZM902.949 480.4L971.303 484.155V489.099L906.84 485.583L907.665 579.649L971.303 575.563V578.959L902.949 583.477V480.4ZM907.85 486.639L971.303 490.1V493.177L954.163 492.105L954.989 573.111L971.303 572.431V574.561L908.656 578.584L908.636 576.317L952.73 573.053L951.079 492.165L907.877 489.718L907.85 486.639ZM955.174 493.171L971.303 494.178V571.43L955.979 572.069L955.174 493.171ZM951.711 572.126L908.628 575.315L907.885 490.72L950.098 493.111L951.711 572.126ZM971.303 579.961V634.011L807.489 659.476L808.305 481.27L789.536 480.203V474.169L855.442 477.79V620.269L813.198 624.254V482.561L847.328 484.491L848.096 613.736L818.094 616.104V612.22L844.203 610.588V551.694H818.094V547.648H844.203V489.728L817.165 487.598L817.094 547.148V617.186L849.101 614.659L848.322 483.545L812.198 481.503V625.353L856.442 621.179V477.845L901.949 480.345V584.546L971.303 579.961ZM807.3 482.214L806.491 659.174L805.461 658.548L789.536 660.853V644.825L802.591 643.193V597.344L789.536 598.259V592.643L801.775 591.964V486.459L789.536 485.643V481.204L807.3 482.214ZM801.591 642.31L789.536 643.817V599.262L801.591 598.417V642.31ZM800.775 591.018L789.536 591.641V486.646L800.775 487.395V591.018ZM843.203 609.649L818.094 611.218V552.694H843.203V609.649ZM843.203 546.648H818.094L818.164 488.679L843.203 490.653V546.648ZM780.386 440.167L782.005 680.44L774.034 678.267V440.872L780.386 440.167ZM779.934 439.211L773.528 439.922L450.93 411.412V409.969L779.934 439.211ZM450.93 454.636V412.416L773.034 440.882V472.261L742.845 470.602V669.879L541.503 700.677L543.949 459.674L450.93 454.636ZM743.845 471.659L773.034 473.262V479.262L743.845 477.482V471.659ZM743.845 478.484L773.034 480.264V663.241L743.845 667.465V650.545L767.507 648.098V600.609L743.845 602.24V595.084L767.507 593.453V484.013L743.845 482.381V478.484ZM766.507 647.196L743.845 649.54V603.243L766.507 601.68V647.196ZM766.507 592.519L743.845 594.082V483.384L766.507 484.946V592.519ZM542.94 460.621L540.504 700.488L536.603 698.723L538.236 466.063L450.93 460.352V455.637L542.94 460.621ZM537.23 466.999L535.604 698.61L450.93 710.706V688.88L477.039 685.617V620.192L450.93 621.824V614.667L477.039 613.036V476.667L450.93 475.036V461.354L537.23 466.999ZM450.93 714.531V711.716L536.028 699.56L539.255 701.021L450.93 714.531ZM476.039 684.734L450.93 687.872V622.826L476.039 621.256V684.734ZM476.039 612.096L450.93 613.665V476.038L476.039 477.607V612.096ZM441.139 717.04L449.93 715.696V736.998L441.139 739.196V717.04ZM440.139 717.193V739.196L431.347 736.998V718.538L440.139 717.193ZM440.139 716.182L431.347 717.526V409.883L440.139 409.15V716.182ZM428.084 453.978H430.347V714.971L428.084 715.537V453.978ZM437.875 750.133V739.661L440.639 740.352L443.402 739.661V750.868L440.697 751.544L437.875 750.133ZM780.017 690.55V680.935L782.473 681.604L786.089 681.152V690.514L782.535 691.578L780.017 690.55ZM978.426 658.668V650.073L981.614 650.604L984.357 649.919V658.678L981.587 659.371L978.426 658.668ZM285.298 346.159V333.301L871.76 407.416V415.387L285.298 346.159Z" fill="black"/>
<path d="M1199.22 604.331L1121.14 600.645L1121.09 601.644L1199.22 605.332V604.331Z" fill="black"/>
<path fill-rule="evenodd" clip-rule="evenodd" d="M171.692 40.8095L174.152 259.736L236.342 269.685V59.8708L171.692 40.8095ZM172.769 47.631L172.707 42.1514L235.342 60.6185V268.512L175.143 258.882L175.072 252.562L231.446 262.35V165.91L173.942 152.039L173.871 145.728L231.446 159.596V64.7648L172.769 47.631ZM230.446 261.162L175.06 251.545L173.954 153.071L230.446 166.697V261.162ZM230.446 158.326L173.86 144.697L172.781 48.6762L230.446 65.5146V158.326Z" fill="black"/>
<path fill-rule="evenodd" clip-rule="evenodd" d="M158.645 23.6715V271.983L249.396 284.357V51.5092L158.645 23.6715ZM159.645 271.11V25.0242L248.396 52.2484V283.211L159.645 271.11Z" fill="black"/>
<path d="M902.607 256.387L902.291 257.336L941.114 270.275V394.963L902.949 388.603V257.677H901.949V389.45L942.114 396.144V269.554L902.607 256.387Z" fill="black"/>
<path fill-rule="evenodd" clip-rule="evenodd" d="M906.835 263.513L908.482 384.554L938.034 389.62V273.63L906.835 263.513ZM907.918 269.553L907.854 264.895L937.034 274.357V388.434L909.471 383.709L909.441 381.476L934.77 386.369V336.419L908.743 330.196L908.686 326.034L934.77 332.559V278.529L907.918 269.553ZM933.77 385.158L909.427 380.455L908.757 331.228L933.77 337.208V385.158ZM933.77 331.278L908.672 325L907.932 270.612L933.77 279.249V331.278Z" fill="black"/>
<path fill-rule="evenodd" clip-rule="evenodd" d="M972.118 284.714V395.989L996.78 399.39V293.217L972.118 284.714ZM973.118 290.761V286.117L995.78 293.93V398.243L973.118 395.118V392.876L993.516 396.14V350.288L973.118 345.393V342.342L993.516 347.237V297.288L973.118 290.761ZM992.516 394.967L973.118 391.864V346.422L992.516 351.077V394.967ZM992.516 345.969L973.118 341.314V291.811L992.516 298.018V345.969Z" fill="black"/>
<path fill-rule="evenodd" clip-rule="evenodd" d="M967.223 278.206V400.891L1001.68 405.092V289.129L967.223 278.206ZM968.223 400.006V279.572L1000.68 289.861V403.963L968.223 400.006Z" fill="black"/>
<path fill-rule="evenodd" clip-rule="evenodd" d="M342.228 460.295V666.149L409.318 659.332V463.608L342.228 460.295ZM343.228 466.051V461.346L408.318 464.559V658.428L343.228 665.042V660.342L402.79 655.074V562.272L343.228 565.535V559.2L402.79 556.753V468.499L343.228 466.051ZM401.79 654.158L343.228 659.338V566.536L401.79 563.328V654.158ZM401.79 555.793L343.228 558.2V467.052L401.79 469.459V555.793Z" fill="black"/>
<path fill-rule="evenodd" clip-rule="evenodd" d="M332.437 448.058V679.207L419.109 669.608V452.185L332.437 448.058ZM333.437 678.09V449.107L418.109 453.139V668.713L333.437 678.09Z" fill="black"/>
</svg>
