<svg width="1200" height="800" viewBox="0 0 1200 800" fill="none" xmlns="http://www.w3.org/2000/svg">
<path fill-rule="evenodd" clip-rule="evenodd" d="M753.045 270.368L713.784 279.264V362.027H714.784V280.063L752.045 271.62V276.014L719.098 283.6V323.621L752.045 317.119V322.602L719.098 329.104V360.944H720.098V329.926L752.045 323.621V355.525H753.045V270.368ZM720.098 284.396L752.045 277.04V316.1L720.098 322.405V284.396Z" fill="black"/>
<path fill-rule="evenodd" clip-rule="evenodd" d="M524.531 320.23L498.033 325.859V393.456H499.033V326.669L523.55 321.461L523.617 325.861L503.347 330.195V361.528L524.114 358.275L524.603 390.212L525.603 390.197L524.531 320.23ZM504.347 331.003L523.633 326.88L524.098 357.266L504.347 360.359V331.003Z" fill="black"/>
<path d="M523.961 362.617L503.347 365.936V393.456H504.347V366.788L524.12 363.605L523.961 362.617Z" fill="black"/>
<path fill-rule="evenodd" clip-rule="evenodd" d="M484.727 645.465L314.637 655.221L314.597 656.215L620.749 698.489L801.488 678.975L801.486 677.981L484.727 645.465ZM363.576 661.969L319.811 655.926L484.216 646.496V655.247L363.576 661.969ZM485.216 655.271V646.52L796.66 678.491L749.356 683.598L485.216 655.271ZM484.703 656.221L744.683 684.103L620.764 697.482L368.744 662.682L484.703 656.221Z" fill="black"/>
<path d="M396.523 472.069L239.227 465.566L239.185 466.566L396.482 473.068L396.523 472.069Z" fill="black"/>
<path d="M259.962 472.04V627.543H260.962V473.097L299.286 475.209V625.987L261.497 628.127L261.553 629.126L300.286 626.931V474.263L259.962 472.04Z" fill="black"/>
<path fill-rule="evenodd" clip-rule="evenodd" d="M305.663 474.222V626.986L348.12 624.766L345.987 474.729L344.987 474.743L344.995 475.306L305.663 474.222ZM306.663 475.25L345.01 476.306L347.106 623.817L306.663 625.932V475.25Z" fill="black"/>
<path fill-rule="evenodd" clip-rule="evenodd" d="M353.49 474.736V623.74L389.57 621.51L387.43 477.519L354.49 475.351V474.736H353.49ZM354.49 622.676V476.354L386.444 478.456L388.556 620.571L354.49 622.676Z" fill="black"/>
<path fill-rule="evenodd" clip-rule="evenodd" d="M876.394 441.689V477.375L1007.06 485.02V450.426L876.394 441.689ZM877.394 476.432V442.758L1006.06 451.361V483.959L877.394 476.432Z" fill="black"/>
<path fill-rule="evenodd" clip-rule="evenodd" d="M860.389 443.855L550.111 465.6V489.836L860.389 477.384V443.855ZM551.111 488.795V466.532L859.389 444.928V476.423L551.111 488.795Z" fill="black"/>
<path d="M946.54 487.213V642.715H947.54V488.269L1006.06 491.465V636.213H1007.06V490.519L946.54 487.213Z" fill="black"/>
<path d="M572.367 495.066L550.111 495.93V623.208H551.111V496.892L571.367 496.105V626.459H572.367V495.066Z" fill="black"/>
<path fill-rule="evenodd" clip-rule="evenodd" d="M834.882 260.639L787.118 269.494V309.499L834.882 302.857V260.639ZM788.118 308.35V270.326L833.882 261.841V301.987L788.118 308.35Z" fill="black"/>
<path fill-rule="evenodd" clip-rule="evenodd" d="M0 105.321V104.3L359.549 178.416L450.197 267.585L447.886 277.008L438.452 274.871V309.549L450.667 310.587L1012.68 173.006L1117.07 66.5557L447.66 264.971L447.375 264.012L1118.51 65.0853L1120.41 63.1544L1200 218.709V220.904L1120.29 65.1167L1120.42 65.5632L1119.05 65.9705L1013.43 173.662V188.13H1016.69V175.418L1120.41 71.8287L1200 229.125V231.34L1120.14 73.5111L1019.81 173.709V315.935L1050.06 311.681L1050.06 311.68L1050.14 311.669L1050.22 311.683L1050.24 311.686L1074.08 315.914V211.791L1157.98 238.114V285.082H1156.98V238.849L1075.08 213.153V316.868L1084.71 318.876V231.285L1150.2 253.18L1149.88 254.128L1085.71 232.673V240.28L1142.04 257.62V293.752H1141.04V258.358L1085.71 241.326V243.542L1108.03 251.128V301.338H1107.03V251.844L1085.71 244.598V319.084L1143.76 331.193L1143.56 332.172L1050.63 312.791V375.692L1200 400.343V401.356L1050.63 376.705V384.359L1200 408.13V409.142L1050.63 385.372V672.416L604.251 729.717V736.431L1178.67 661.726L1178.8 662.718L603.741 737.506L134.487 656.314V656.804H133.487V656.255L0 665.369V664.366L133.487 655.253V626.013L0 630.981V629.98L136.676 624.894V619.393L0 624.859V623.858L126.048 618.817V457.476L0 452.716V451.715L136.676 456.877V452.477H133.976L11.7417 447.058L11.786 446.059L133.487 451.455V406.746L0 397.451V396.449L134.016 405.781L134.022 405.781L136.676 405.931V399.344L127.048 398.743V399.409L0 390.899V389.81L126.048 397.679V243.564L135.305 239.788L0 219.349V218.337L136.676 238.984V233.491L134.487 233.15V233.649L0 212.221V211.202L133.487 231.983V216.149L0 194.714V193.701L134.027 215.223H136.676V210.727L41.4475 194.543L41.4388 194.541L0 188.248V187.237L41.6064 193.555L137.676 209.882V216.223H134.487V221.802L447.599 273.752L447.483 274.454L449.09 267.899L448.632 267.449L448.494 268.235L138.153 214.048L138.325 213.063L448.378 267.2L359.059 179.336L0 105.321ZM1012.43 174.095V188.233L471.943 313.834L453.272 310.978L1012.43 174.095ZM450.647 311.589L471.878 314.836L471.887 314.837L484.616 317L484.632 317.003L489.53 318.003V614.302L455.457 616.177V598.782H485.216V462.35L455.457 460.182V447.097L485.216 449.264V327.985L438.452 322.687V310.552L450.647 311.589ZM493.855 614.064L490.53 614.247V317.186L484.808 316.019L474.499 314.267L1012.99 189.13H1017.69V175.832L1018.81 174.708V316.381L1008.12 317.989V208.596L775.427 260.84V352.274H776.427V261.64L1007.12 209.845V318.14L1003.87 318.629V215.102L779.678 264.089V352.35L709.47 362.91V274.655L757.359 265.101V355.525H758.359V263.882L708.47 273.835V363.061L691.402 365.628V277.953L542.671 311.776V387.999L528.791 390.087V314.803L493.786 322.611L492.719 411.873L493.719 411.885L494.777 323.415L527.791 316.051V390.205H528.008L494.844 395.193V446.559L493.855 614.064ZM916.719 332.749L1049.63 312.756V375.669L495.844 438.413V396.054L783.584 352.774H788.118V352.092L916.599 332.767H916.719V332.749ZM495.844 439.419L1049.63 376.676V384.338L495.844 446V439.419ZM495.842 447.007L1049.63 385.345V671.536L602.698 728.909L136.196 650.892L136.031 651.878L602.679 729.919L603.251 729.846V736.406L134.487 655.299V649.695L180.716 647.552L209.429 652.974L238.643 649.664V646.437L397.564 636.714L430.518 638.882L455.457 636.67V617.179L493.849 615.066L493.779 626.928L511.246 628.041L511.255 628.042L1019.81 669.267V420.003L511.852 464.524L510.79 627.01L494.784 625.99L495.842 447.007ZM180.251 646.573L134.487 648.694V625.976L137.676 625.857V618.373H127.048V457.514L137.676 457.915V451.477H134.487V406.809L137.676 406.99V398.405L127.048 397.741V244.236L137.676 239.901V232.635L134.487 232.138V222.815L447.414 274.734L447.149 275.816L437.452 273.619V322.573L436.946 322.516L436.833 323.51L437.452 323.58V372.587L402.317 368.79V283.573L201.508 250.898V352.231L183.44 357.314V404.293H184.44V358.071L214.261 349.683V400.92L209.425 400.539L177.063 406.038V413.463H180.251V646.573ZM438.452 327.981V323.693L484.216 328.878V448.189L455.457 446.094V441.686L479.902 443.854V332.316L438.452 327.981ZM478.902 442.761L455.457 440.682V427.552H457.583V420.087L215.261 400.998V349.579L437.452 373.593V373.948H438.452V373.701L444.892 374.397V418.382H445.892V373.5L438.452 372.696V328.987L478.902 333.217V442.761ZM456.583 426.552H454.976L209.947 408.164V401.583L456.583 421.011V426.552ZM178.063 412.39L208.947 408.191V401.634L178.063 406.883V412.39ZM208.947 409.201L181.251 412.966V646.636L208.947 651.865V409.201ZM209.947 409.167V651.909L237.643 648.771V460.124L431.013 468.839V637.834L454.457 635.755V427.515L209.947 409.167ZM430.013 469.869V637.846L398.065 635.745V473.022L430.013 469.869ZM397.065 635.742L238.643 645.435V634.521L260.49 633.461L393.814 625.967V476.903H392.814V625.021L260.438 632.462L238.643 633.52V628.043H255.648V472.068H238.643V461.17L423.536 469.503L397.065 472.115V635.742ZM254.648 627.043H238.643V473.068H254.648V627.043ZM455.457 597.782V594.447H479.902V468.86L455.457 466.692V461.185L484.216 463.28V597.782H455.457ZM455.457 593.447V467.696L478.902 469.775V593.447H455.457ZM401.317 284.424V368.682L397.003 368.216V286.823L206.822 256.318V350.737L202.508 351.95V252.074L401.317 284.424ZM396.003 287.676V368.108L389.563 367.412V293.318L350.293 287.756L351.356 363.282L345.987 362.702V286.814L305.655 281.256L306.718 358.458L301.349 357.878V280.321L259.962 273.658V353.405L254.585 352.824V271.652L207.822 264.066V257.492L396.003 287.676ZM388.563 294.186V367.304L352.358 363.391L351.31 288.91L388.563 294.186ZM344.987 287.685V362.594L307.72 358.566L306.671 282.406L344.987 287.685ZM300.349 281.173V357.77L260.962 353.513V274.832L300.349 281.173ZM253.585 272.503V352.716L214.719 348.515L207.822 350.455V265.079L253.585 272.503ZM1018.81 668.182L518.211 627.602L545.292 625.877L870.523 651.887L1018.81 636.766V668.182ZM1018.81 491.492V635.761L914.593 646.388V486.114L941.226 488.203V642.715H942.226V487.278L913.593 485.033V646.49L909.279 646.93V485.089L875.332 483.973V650.301H876.217L870.512 650.883L860.389 650.073V483.971L819.003 485.493V646.763L813.626 646.333V485.702L603.251 493.867V629.509L601.063 629.334V493.952L573.756 495.012V626.459H574.756V495.974L600.063 494.992V629.254L545.301 624.874L545.265 624.876L511.79 627.01L512.846 465.441L540.545 463.013V623.208H541.545V463.279L870.018 438.823V650.301H871.018V438.749L875.833 438.39L1018.81 448.11V450.394H1011.37V484.99H1018.81V490.492H1011.37V636.213H1012.37V491.492H1018.81ZM908.279 486.057V647.032L876.332 650.289V485.006L908.279 486.057ZM859.389 485.008V649.993L820.003 646.843V486.456L859.389 485.008ZM812.626 486.742V646.253L669.083 634.773V492.313L732.915 489.836V639.464H733.915V489.797L739.291 489.588V639.464H740.291V489.549L772.235 488.309L771.176 641.628L772.176 641.635L773.235 488.271L777.553 488.103V641.631H778.553V488.064L812.626 486.742ZM668.083 492.352V634.694L664.832 634.433V492.478L668.083 492.352ZM663.832 492.517V634.354L630.823 631.714L631.881 493.757L634.073 493.672V631.878H635.073V493.633L663.832 492.517ZM630.88 493.796L629.823 631.634L604.251 629.589V494.829L630.88 493.796ZM1018.81 421.095L590.744 458.613L875.83 437.388L1018.81 447.107V421.095ZM1012.37 451.394H1018.81V483.99H1012.37V451.394ZM833.882 344.197L788.118 351.08V316.936L833.882 309.512V344.197ZM834.882 344.047L915.719 331.888V242.358L844.447 258.389V342.52H843.447V257.589L916.719 241.108V331.737L1003.54 318.678H1002.87V222.844L923.095 239.969V330.599H922.095V239.161L1002.87 221.821V216.344L780.678 264.894V351.774H783.509L787.118 351.231V316.085L834.882 308.337V344.047ZM690.402 279.206V365.778L686.088 366.427V284.46L546.922 315.025V386.953H547.922V315.829L685.088 285.704V290.1L651.078 297.686V335.52L685.088 330.101V334.507L651.078 339.926V370.884L646.764 371.513V298.548L596.874 309.607V378.78L592.56 379.408V311.557L551.173 320.441V386.448L608.595 378.083L543.671 387.849V312.575L690.402 279.206ZM652.078 298.488L685.088 291.125V329.089L652.078 334.348V298.488ZM652.078 340.779L685.088 335.52V365.93L652.078 370.738V340.779ZM645.764 299.794V371.658L597.874 378.634V310.409L645.764 299.794ZM591.56 312.794V379.554L552.173 385.291V321.249L591.56 312.794Z" fill="black"/>
<path d="M0 458.612V457.612H21.8291V618.264L0 618.988V617.987L20.8291 617.297V458.612H0Z" fill="black"/>
<path d="M1200 456.031V457.037L1087.83 444.948V669.808H1086.83V443.835L1200 456.031Z" fill="black"/>
<path d="M33.0902 230.4L32.95 231.39L70.7814 236.748V390.746L30.9346 387.539L30.8544 388.535L71.7814 391.83V235.88L33.0902 230.4Z" fill="black"/>
<path fill-rule="evenodd" clip-rule="evenodd" d="M78.2211 237.895V391.75L119.608 395.081V244.558L78.2211 237.895ZM79.2211 390.827V239.068L118.608 245.41V393.998L79.2211 390.827Z" fill="black"/>
<path d="M1112.34 253.003V316.51H1113.34V254.304L1136.78 260.541V314.343H1137.78V259.772L1112.34 253.003Z" fill="black"/>
<path fill-rule="evenodd" clip-rule="evenodd" d="M27.206 457.894V618.086L70.7186 616.643V459.987L27.206 457.894ZM28.206 617.052V458.943L69.7186 460.94V615.675L28.206 617.052Z" fill="black"/>
<path fill-rule="evenodd" clip-rule="evenodd" d="M78.2211 460.348V616.394L119.608 615.022V462.338L78.2211 460.348ZM79.2211 615.36V461.397L118.608 463.291V614.054L79.2211 615.36Z" fill="black"/>
</svg>
