<svg width="1200" height="800" viewBox="0 0 1200 800" fill="none" xmlns="http://www.w3.org/2000/svg">
<g clip-path="url(#clip0_4_2)">
<path fill-rule="evenodd" clip-rule="evenodd" d="M911.208 206.935V347.775L867.186 346.509V210.732L911.208 206.935ZM910.208 346.745V208.025L868.186 211.649V345.537L910.208 346.745Z" fill="black"/>
<path fill-rule="evenodd" clip-rule="evenodd" d="M863.024 211.26V346.532L827.6 345.896L829.333 214.446L863.024 211.26ZM862.024 345.514V212.359L830.321 215.357L828.613 344.914L862.024 345.514Z" fill="black"/>
<path fill-rule="evenodd" clip-rule="evenodd" d="M0 111.619V110.048L37.4448 64.6965L130.657 75.8577V70.1734H131.657V75.9774L149.586 78.1243V68.3179H150.586V78.2441L469.667 116.451V98.3856L476.914 92.5252L487.875 94.4951V118.631L703.75 144.48V125.596L710.375 120.363L719.045 121.698V146.311L953.803 174.421V154.533L960.613 152.531L967.423 154.533V176.052L1122.87 194.666V205.473L967.423 215.988V344.924L1122.87 351.109V361.332L1114.27 361.951V369.036L1174.5 370.273V530.102L149.755 800H147.792L147.664 799.516L1173.5 529.331V371.305L0 465.975V464.972L1164.1 371.06L1114.27 370.036V373.701L38.0588 454.156L4.63123 424.949L5.28918 424.196L37.7302 452.541V430.757H38.7302V453.103L1113.27 372.773V362.018L24.8741 431.269L0 411.154V409.867L25.1997 430.246L1113.73 360.987L1113.74 360.987L1121.87 360.402V352.117L24.8916 410.237L0 392.848V391.628L25.1824 409.22L1111.58 351.661L967.423 345.925V357.175L960.606 357.658L953.803 356.991V216.681L916.944 219.692V353.96L813.119 350.868V361.963L719.045 366.354V368.133L710.436 368.797L705.839 366.938L487.875 377.124V382.363L478.139 383.02L469.667 380.41V377.975L150.586 392.888V399.698L131.083 400.335L121.479 397.099V391.525L116.316 389.669V125.003L120.44 122.009H113.301V393.161L51.8046 367.513L52.1895 366.591L112.301 391.66V122.488L41.3917 173.867L40.8049 173.058L112.639 121.009H121.479V114.439L131.034 108L150.586 110.555V115.488L470.058 145.908L476.947 142.022L487.875 143.331V147.604L599.853 158.267L599.855 158.267L704.151 168.794L710.41 165.531L719.045 166.196V169.616L813.119 178.574V211.878L916.944 201.982V218.689L953.803 215.678V194.08L960.613 192.745L967.423 194.08V214.985L1116.74 204.886L37.8552 85.5423L0 127.237V125.749L37.1566 84.8241V66.6162L0 111.619ZM470.667 98.8629V116.571L476.55 117.275V94.1051L470.667 98.8629ZM477.55 93.6556V117.395L486.875 118.511V95.3314L477.55 93.6556ZM704.75 126.08V144.6L710.014 145.23V121.922L704.75 126.08ZM711.014 121.473V145.35L718.045 146.192V122.556L711.014 121.473ZM954.803 155.282V174.541L960.113 175.177V153.72L954.803 155.282ZM961.113 153.72V175.297L966.423 175.933V155.282L961.113 153.72ZM966.423 356.243V194.903L961.113 193.862V356.619L966.423 356.243ZM960.113 356.605V193.862L954.803 194.903V356.084L960.113 356.605ZM813.119 345.548V349.867L915.944 352.93V203.082L813.119 212.882V216.194L823.444 214.957V345.923L813.119 345.548ZM822.444 216.084L813.119 217.201V344.547L822.444 344.886V216.084ZM719.045 360.728V365.353L812.119 361.008V179.484L719.045 170.621V175.692L807.956 184.141V357.017L719.045 360.728ZM806.956 185.05L719.045 176.696V359.727L806.956 356.058V185.05ZM600.305 370.869L705.425 365.956V362.004L604.468 365.715V165.808L600.305 165.413V370.869ZM703.754 175.243L605.468 165.903V364.678L705.421 361.004L703.754 175.243ZM703.75 174.238V169.758L600.305 159.318V164.408L703.75 174.238ZM710.014 166.865L704.75 169.61V174.788L706.425 361.481V366.096L710.014 367.547V166.865ZM711.014 367.749L718.045 367.208V167.122L711.014 166.58V367.749ZM599.305 164.313V159.219L487.875 148.609V153.724L599.305 164.313ZM486.875 153.629V148.514L477.575 147.628L477.599 152.748L486.875 153.629ZM476.599 152.653L476.574 147.533L470.667 146.97V152.089L476.599 152.653ZM476.569 146.528L471.799 146.074L476.555 143.391L476.569 146.528ZM477.57 146.623L477.553 143.101L486.875 144.218V147.509L477.57 146.623ZM469.667 151.994V146.875L150.586 116.492V121.672L469.667 151.994ZM271.194 134.138L150.586 122.677V381.996L271.194 377.702V134.138ZM150.586 382.997V391.886L469.667 376.974V370.601L281.519 378.087V135.119L272.194 134.233V378.667L150.586 382.997ZM470.667 370.561V376.928L477.669 376.6L477.639 370.284L470.667 370.561ZM478.639 370.244L478.669 376.554L486.875 376.17V369.916L478.639 370.244ZM478.674 377.555L486.875 377.171V381.428L478.695 381.98L478.674 377.555ZM477.674 377.601L477.694 381.836L470.667 379.671V377.929L477.674 377.601ZM487.875 369.876V376.123L599.305 370.916V165.318L595.138 164.922L593.418 365.677L487.875 369.876ZM592.426 364.716L594.139 164.827L487.875 154.729V368.876L592.426 364.716ZM486.875 368.915V154.634L477.604 153.753L478.634 369.243L486.875 368.915ZM477.634 369.283L476.604 153.658L470.667 153.093V369.56L477.634 369.283ZM469.667 369.6V152.998L282.519 135.214V377.046L469.667 369.6ZM117.316 388.966L121.479 390.462V122.49L117.316 125.513V388.966ZM38.1566 84.5696L1121.87 204.447V195.553L38.1566 65.7888V84.5696ZM149.586 398.73V111.433L131.657 109.09V399.316L149.586 398.73ZM130.657 399.136V109.46L122.479 114.971V396.381L130.657 399.136Z" fill="black"/>
<path fill-rule="evenodd" clip-rule="evenodd" d="M0 487.89V486.886L736.272 420.983L736.282 420.982L736.287 420.981L747.181 420.11L747.186 420.109L1167.04 382.586V520.829L59.2059 800H57.1597L57.0375 799.515L1163.74 520.629L1122.87 516.05V519.597L250.012 727.504L250.007 727.505L37.9996 775.825L0 716.806V714.958L37.7302 773.56V484.518L0 487.89ZM1166.04 383.68V519.88L1122.87 515.044V387.538L1166.04 383.68ZM1121.87 387.627L1088.46 390.614V526.767L1121.87 518.807V387.627ZM1087.46 390.703L1079.92 391.376V524.991L1087.46 526.768V390.703ZM1078.92 524.989V391.466L1075.84 391.741V522.694L977.174 544.96V548.431L1078.92 524.989ZM1074.84 521.895V391.831L977.174 400.559V543.935L1074.84 521.895ZM976.174 400.648L932.432 404.558V563.931L976.174 553.512V400.648ZM931.432 404.647L922.68 405.429V561.243L931.432 563.89V404.647ZM921.68 561.216V405.519L917.518 405.891V557.33L867.186 568.689V410.389L862.45 410.812V570.322L814.266 580.836V585.964L921.68 561.216ZM916.518 556.531V405.98L868.186 410.299V567.438L916.518 556.531ZM861.45 569.516V410.901L814.266 415.118V579.813L861.45 569.516ZM813.266 415.208L747.726 421.065V607.926L813.266 592.315V415.208ZM746.726 421.149L736.827 421.941V604.805L746.726 607.88V421.149ZM745.335 608.495L736.307 605.691L583.67 640.119V647.002L745.335 608.495ZM582.67 639.322L490.17 660.633V444.083L582.67 435.816V639.322ZM582.67 640.348L490.17 661.659V669.273L582.67 647.24V640.348ZM250.396 726.384L488.592 669.649L481.508 663.655L250.396 716.901V726.384ZM489.17 661.889L482.724 663.374L489.17 668.828V661.889ZM489.17 660.863L482.139 662.483V444.801L489.17 444.172V660.863ZM481.139 444.89V662.713L250.396 715.875V708.245L474.682 658.146V445.467L481.139 444.89ZM250.396 465.512V707.22L473.682 657.345V445.556L250.396 465.512ZM249.396 465.601L38.7302 484.428V774.633L249.396 726.618V465.601ZM735.827 604.774V422.039L732.238 422.439V600.004L662.404 616.318V428.69L655.373 429.319V617.947L583.67 633.409V639.094L735.827 604.774ZM731.238 422.538L663.404 428.601V615.058L731.238 599.21V422.538ZM654.373 617.14V429.408L583.67 435.727V632.386L654.373 617.14ZM814.266 586.99V592.076L930.015 564.506L922.163 562.131L814.266 586.99ZM977.174 549.457V553.273L1085.79 527.403L1079.42 525.901L977.174 549.457Z" fill="black"/>
<path d="M491.248 800H489.67L489.512 799.526L1146.88 579.959L1147.2 580.908L491.248 800Z" fill="black"/>
<path d="M337.586 51.4943L337.735 50.5056L1010.59 152.471V147.914L384.621 51.4941L384.774 50.5058L1011.59 147.057V153.633L337.586 51.4943Z" fill="black"/>
</g>
<defs>
<clipPath id="clip0_4_2">
<rect width="1200" height="800" fill="white"/>
</clipPath>
</defs>
</svg>
