<svg width="216" height="68" viewBox="0 0 216 68" fill="none" xmlns="http://www.w3.org/2000/svg">
<path d="M143.252 12C143.332 12 143.372 12.08 143.372 12.24C143.372 12.4 143.332 12.48 143.252 12.48C142.132 12.48 141.318 12.7867 140.812 13.4C140.305 14.0133 140.052 15.0133 140.052 16.4V37.48C140.052 37.5333 139.985 37.5733 139.852 37.6C139.718 37.6267 139.625 37.6133 139.572 37.56L121.172 15.28L120.812 14.88V32.64C120.812 34.0267 121.052 35.0267 121.532 35.64C122.038 36.2267 122.838 36.52 123.932 36.52C124.012 36.52 124.052 36.6 124.052 36.76C124.052 36.92 124.012 37 123.932 37C123.265 37 122.758 36.9867 122.412 36.96L120.412 36.92L118.372 36.96C117.998 36.9867 117.452 37 116.732 37C116.678 37 116.652 36.92 116.652 36.76C116.652 36.6 116.678 36.52 116.732 36.52C117.878 36.52 118.692 36.2267 119.172 35.64C119.652 35.0267 119.892 34.0267 119.892 32.64V13.92C118.852 12.96 117.798 12.48 116.732 12.48C116.652 12.48 116.612 12.4 116.612 12.24C116.612 12.08 116.652 12 116.732 12L118.212 12.04C118.532 12.0667 118.972 12.08 119.532 12.08C120.118 12.08 120.598 12.0667 120.972 12.04C121.345 12.0133 121.638 12 121.852 12C122.065 12 122.212 12.0533 122.292 12.16C122.398 12.24 122.558 12.44 122.772 12.76C123.092 13.24 123.412 13.68 123.732 14.08L139.132 33V16.4C139.132 15.0133 138.892 14.0133 138.412 13.4C137.958 12.7867 137.185 12.48 136.092 12.48C136.038 12.48 136.012 12.4 136.012 12.24C136.012 12.08 136.038 12 136.092 12L137.652 12.04C138.452 12.0933 139.105 12.12 139.612 12.12C140.092 12.12 140.758 12.0933 141.612 12.04L143.252 12ZM153.194 37.52C151.648 37.52 150.274 37.1467 149.074 36.4C147.901 35.6267 146.994 34.6 146.354 33.32C145.714 32.0133 145.394 30.6 145.394 29.08C145.394 27.3467 145.808 25.88 146.634 24.68C147.488 23.4533 148.568 22.5467 149.874 21.96C151.208 21.3467 152.554 21.04 153.914 21.04C155.488 21.04 156.861 21.4267 158.034 22.2C159.208 22.9733 160.101 24 160.714 25.28C161.354 26.5333 161.674 27.8667 161.674 29.28C161.674 30.9333 161.288 32.3867 160.514 33.64C159.741 34.8667 158.701 35.8267 157.394 36.52C156.114 37.1867 154.714 37.52 153.194 37.52ZM154.354 36.76C155.821 36.76 156.954 36.24 157.754 35.2C158.554 34.16 158.954 32.56 158.954 30.4C158.954 28.7467 158.674 27.2667 158.114 25.96C157.581 24.6533 156.834 23.64 155.874 22.92C154.914 22.1733 153.821 21.8 152.594 21.8C151.154 21.8 150.034 22.32 149.234 23.36C148.461 24.4 148.074 25.8933 148.074 27.84C148.074 29.4667 148.341 30.96 148.874 32.32C149.408 33.68 150.154 34.76 151.114 35.56C152.074 36.36 153.154 36.76 154.354 36.76ZM173.895 21.2C174.482 21.2 175.042 21.36 175.575 21.68C176.108 22 176.375 22.3867 176.375 22.84C176.375 23.1867 176.255 23.48 176.015 23.72C175.802 23.96 175.482 24.08 175.055 24.08C174.815 24.08 174.602 24.04 174.415 23.96C174.255 23.8533 174.055 23.7067 173.815 23.52C173.575 23.3067 173.348 23.1467 173.135 23.04C172.922 22.9333 172.668 22.88 172.375 22.88C172.028 22.88 171.655 23.0267 171.255 23.32C170.882 23.6133 170.282 24.24 169.455 25.2V33.76C169.455 34.56 169.548 35.1467 169.735 35.52C169.948 35.8933 170.322 36.16 170.855 36.32C171.388 36.4533 172.215 36.52 173.335 36.52C173.442 36.52 173.495 36.6 173.495 36.76C173.495 36.92 173.442 37 173.335 37C172.482 37 171.802 36.9867 171.295 36.96L168.335 36.92L166.135 36.96C165.788 36.9867 165.308 37 164.695 37C164.615 37 164.575 36.92 164.575 36.76C164.575 36.6 164.615 36.52 164.695 36.52C165.415 36.52 165.948 36.4533 166.295 36.32C166.642 36.16 166.868 35.8933 166.975 35.52C167.108 35.1467 167.175 34.56 167.175 33.76V25.84C167.175 24.9333 167.068 24.28 166.855 23.88C166.642 23.48 166.282 23.28 165.775 23.28C165.348 23.28 164.628 23.48 163.615 23.88H163.535C163.428 23.88 163.348 23.8267 163.295 23.72C163.268 23.5867 163.308 23.4933 163.415 23.44L168.055 21.24L168.295 21.2C168.535 21.2 168.788 21.5067 169.055 22.12C169.322 22.7333 169.455 23.52 169.455 24.48V24.52C170.548 23.24 171.415 22.3733 172.055 21.92C172.695 21.44 173.308 21.2 173.895 21.2ZM189.705 34.92C189.812 34.92 189.892 34.9867 189.945 35.12C189.999 35.2267 189.985 35.3067 189.905 35.36C188.919 36.1333 188.025 36.68 187.225 37C186.452 37.32 185.639 37.48 184.785 37.48C183.665 37.48 182.745 37.2267 182.025 36.72C181.305 36.2133 180.945 35.3733 180.945 34.2V24.8C180.945 24.1067 180.892 23.6133 180.785 23.32C180.705 23.0267 180.532 22.84 180.265 22.76C179.999 22.6533 179.545 22.6 178.905 22.6C178.799 22.6 178.745 22.52 178.745 22.36C178.745 22.1733 178.799 22.08 178.905 22.08C179.972 22.0533 180.839 21.7733 181.505 21.24C182.172 20.68 182.559 19.9467 182.665 19.04C182.665 18.96 182.772 18.92 182.985 18.92C183.172 18.92 183.265 18.96 183.265 19.04V22C184.599 21.9733 186.452 21.84 188.825 21.6C188.879 21.6 188.932 21.7067 188.985 21.92C189.065 22.1067 189.105 22.32 189.105 22.56C189.105 22.7733 189.052 23 188.945 23.24C188.865 23.4533 188.772 23.5467 188.665 23.52C187.199 23.1467 185.399 22.9333 183.265 22.88V32.84C183.265 33.9333 183.532 34.7467 184.065 35.28C184.625 35.8133 185.412 36.08 186.425 36.08C187.599 36.08 188.665 35.7067 189.625 34.96L189.705 34.92ZM209.661 36.52C209.741 36.52 209.781 36.6 209.781 36.76C209.781 36.92 209.741 37 209.661 37C209.048 37 208.554 36.9867 208.181 36.96L206.021 36.92L203.861 36.96C203.488 36.9867 202.994 37 202.381 37C202.301 37 202.261 36.92 202.261 36.76C202.261 36.6 202.301 36.52 202.381 36.52C203.101 36.52 203.634 36.4533 203.981 36.32C204.328 36.16 204.568 35.8933 204.701 35.52C204.834 35.12 204.901 34.5333 204.901 33.76V27.4C204.901 25.8267 204.594 24.6667 203.981 23.92C203.394 23.1467 202.474 22.76 201.221 22.76C200.394 22.76 199.554 22.9867 198.701 23.44C197.848 23.8667 197.074 24.4667 196.381 25.24V33.76C196.381 34.5333 196.448 35.12 196.581 35.52C196.714 35.8933 196.954 36.16 197.301 36.32C197.648 36.4533 198.181 36.52 198.901 36.52C198.981 36.52 199.021 36.6 199.021 36.76C199.021 36.92 198.981 37 198.901 37C198.288 37 197.794 36.9867 197.421 36.96L195.261 36.92L193.101 36.96C192.728 36.9867 192.234 37 191.621 37C191.541 37 191.501 36.92 191.501 36.76C191.501 36.6 191.541 36.52 191.621 36.52C192.341 36.52 192.874 36.4533 193.221 36.32C193.568 36.16 193.808 35.8933 193.941 35.52C194.074 35.12 194.141 34.5333 194.141 33.76V13.08C194.141 12.12 194.048 11.4267 193.861 11C193.674 10.5733 193.341 10.36 192.861 10.36C192.461 10.36 191.848 10.5467 191.021 10.92H190.941C190.861 10.92 190.794 10.8533 190.741 10.72C190.688 10.5867 190.714 10.5067 190.821 10.48L195.901 8H196.021C196.128 8 196.208 8.04 196.261 8.12C196.341 8.17333 196.381 8.24 196.381 8.32V24.56C197.394 23.3867 198.394 22.5333 199.381 22C200.394 21.44 201.448 21.16 202.541 21.16C204.008 21.16 205.141 21.5733 205.941 22.4C206.741 23.2267 207.141 24.4267 207.141 26V33.76C207.141 34.5333 207.208 35.12 207.341 35.52C207.474 35.8933 207.714 36.16 208.061 36.32C208.408 36.4533 208.941 36.52 209.661 36.52Z" fill="#3F3F3F"/>
<path d="M14.5852 33.8548C14.5852 34.7082 14.6919 35.3348 14.9052 35.7348C15.1452 36.1082 15.5852 36.3748 16.2252 36.5348C16.8919 36.6948 17.9319 36.7748 19.3452 36.7748C19.4252 36.7748 19.4652 36.8548 19.4652 37.0148C19.4652 37.1748 19.4252 37.2548 19.3452 37.2548C18.2519 37.2548 17.3985 37.2415 16.7852 37.2148L13.3052 37.1748L10.6252 37.2148C10.1185 37.2415 9.43855 37.2548 8.58522 37.2548C8.53188 37.2548 8.50522 37.1748 8.50522 37.0148C8.50522 36.8548 8.53188 36.7748 8.58522 36.7748C9.59855 36.7748 10.3319 36.7082 10.7852 36.5748C11.2652 36.4415 11.5852 36.1882 11.7452 35.8148C11.9052 35.4148 11.9852 34.8148 11.9852 34.0148V15.4948C11.9852 14.6948 11.9052 14.1082 11.7452 13.7348C11.5852 13.3615 11.2652 13.1082 10.7852 12.9748C10.3319 12.8148 9.59855 12.7348 8.58522 12.7348C8.53188 12.7348 8.50522 12.6548 8.50522 12.4948C8.50522 12.3348 8.53188 12.2548 8.58522 12.2548L10.5852 12.2948C11.7052 12.3482 12.5985 12.3748 13.2652 12.3748C13.9319 12.3748 14.6786 12.3348 15.5052 12.2548C15.8252 12.2548 16.3319 12.2415 17.0252 12.2148C17.7186 12.1615 18.3186 12.1348 18.8252 12.1348C21.2786 12.1348 23.2386 12.6815 24.7052 13.7748C26.1986 14.8682 26.9452 16.5348 26.9452 18.7748C26.9452 20.5348 26.5052 22.0148 25.6252 23.2148C24.7719 24.4148 23.6652 25.3082 22.3052 25.8948C20.9719 26.4815 19.5852 26.7748 18.1452 26.7748C17.3452 26.7748 16.6919 26.7082 16.1852 26.5748C16.1052 26.5748 16.0652 26.5082 16.0652 26.3748C16.0652 26.2948 16.0786 26.2148 16.1052 26.1348C16.1585 26.0548 16.2119 26.0282 16.2652 26.0548C16.6919 26.1615 17.1719 26.2148 17.7052 26.2148C19.4652 26.2148 20.9452 25.6415 22.1452 24.4948C23.3719 23.3482 23.9852 21.6948 23.9852 19.5348C23.9852 17.4282 23.4119 15.7748 22.2652 14.5748C21.1186 13.3482 19.6519 12.7348 17.8652 12.7348C16.9052 12.7348 16.2119 12.7882 15.7852 12.8948C15.3586 13.0015 15.0519 13.2548 14.8652 13.6548C14.6785 14.0282 14.5852 14.6682 14.5852 15.5748V33.8548ZM36.9265 37.7748C35.3798 37.7748 34.0065 37.4015 32.8065 36.6548C31.6331 35.8815 30.7265 34.8548 30.0865 33.5748C29.4465 32.2682 29.1265 30.8548 29.1265 29.3348C29.1265 27.6015 29.5398 26.1348 30.3665 24.9348C31.2198 23.7082 32.2998 22.8015 33.6065 22.2148C34.9398 21.6015 36.2865 21.2948 37.6465 21.2948C39.2198 21.2948 40.5931 21.6815 41.7665 22.4548C42.9398 23.2282 43.8331 24.2548 44.4465 25.5348C45.0865 26.7882 45.4065 28.1215 45.4065 29.5348C45.4065 31.1882 45.0198 32.6415 44.2465 33.8948C43.4731 35.1215 42.4331 36.0815 41.1265 36.7748C39.8465 37.4415 38.4465 37.7748 36.9265 37.7748ZM38.0865 37.0148C39.5531 37.0148 40.6865 36.4948 41.4865 35.4548C42.2865 34.4148 42.6865 32.8148 42.6865 30.6548C42.6865 29.0015 42.4065 27.5215 41.8465 26.2148C41.3131 24.9082 40.5665 23.8948 39.6065 23.1748C38.6465 22.4282 37.5531 22.0548 36.3265 22.0548C34.8865 22.0548 33.7665 22.5748 32.9665 23.6148C32.1931 24.6548 31.8065 26.1482 31.8065 28.0948C31.8065 29.7215 32.0731 31.2148 32.6065 32.5748C33.1398 33.9348 33.8865 35.0148 34.8465 35.8148C35.8065 36.6148 36.8865 37.0148 38.0865 37.0148ZM52.3071 16.7748C51.7471 16.7748 51.3071 16.6282 50.9871 16.3348C50.6938 16.0415 50.5471 15.6282 50.5471 15.0948C50.5471 14.5615 50.6938 14.1482 50.9871 13.8548C51.3071 13.5615 51.7471 13.4148 52.3071 13.4148C52.8404 13.4148 53.2538 13.5615 53.5471 13.8548C53.8404 14.1482 53.9871 14.5615 53.9871 15.0948C53.9871 15.6282 53.8404 16.0415 53.5471 16.3348C53.2538 16.6282 52.8404 16.7748 52.3071 16.7748ZM48.9471 37.2548C48.8938 37.2548 48.8671 37.1748 48.8671 37.0148C48.8671 36.8548 48.8938 36.7748 48.9471 36.7748C49.6671 36.7748 50.2004 36.7082 50.5471 36.5748C50.9204 36.4148 51.1738 36.1482 51.3071 35.7748C51.4404 35.3748 51.5071 34.7882 51.5071 34.0148V26.5348C51.5071 25.5748 51.4004 24.8815 51.1871 24.4548C51.0004 24.0282 50.6671 23.8148 50.1871 23.8148C49.7071 23.8148 49.1071 24.0015 48.3871 24.3748H48.3471C48.2404 24.3748 48.1604 24.3082 48.1071 24.1748C48.0538 24.0415 48.0671 23.9482 48.1471 23.8948L53.3471 21.4948L53.5071 21.4548C53.5604 21.4548 53.6271 21.4948 53.7071 21.5748C53.7871 21.6282 53.8271 21.6948 53.8271 21.7748C53.8271 21.9615 53.8138 22.4948 53.7871 23.3748C53.7604 24.2548 53.7471 25.2948 53.7471 26.4948V34.0148C53.7471 34.8148 53.8138 35.4015 53.9471 35.7748C54.0804 36.1482 54.3204 36.4148 54.6671 36.5748C55.0138 36.7082 55.5471 36.7748 56.2671 36.7748C56.3471 36.7748 56.3871 36.8548 56.3871 37.0148C56.3871 37.1748 56.3471 37.2548 56.2671 37.2548C55.6538 37.2548 55.1604 37.2415 54.7871 37.2148L52.6271 37.1748L50.4671 37.2148C50.0938 37.2415 49.5871 37.2548 48.9471 37.2548ZM77.5646 36.7748C77.6446 36.7748 77.6846 36.8548 77.6846 37.0148C77.6846 37.1748 77.6446 37.2548 77.5646 37.2548C76.9513 37.2548 76.4713 37.2415 76.1246 37.2148L73.9646 37.1748L71.7646 37.2148C71.4179 37.2415 70.9379 37.2548 70.3246 37.2548C70.2446 37.2548 70.2046 37.1748 70.2046 37.0148C70.2046 36.8548 70.2446 36.7748 70.3246 36.7748C71.0446 36.7748 71.5779 36.7082 71.9246 36.5748C72.2713 36.4148 72.4979 36.1482 72.6046 35.7748C72.7379 35.4015 72.8046 34.8148 72.8046 34.0148V27.5348C72.8046 25.9615 72.4979 24.8015 71.8846 24.0548C71.2979 23.3082 70.3779 22.9348 69.1246 22.9348C68.2979 22.9348 67.4579 23.1615 66.6046 23.6148C65.7779 24.0415 65.0179 24.6415 64.3246 25.4148V34.0148C64.3246 34.8148 64.3779 35.4015 64.4846 35.7748C64.6179 36.1482 64.8579 36.4148 65.2046 36.5748C65.5513 36.7082 66.0846 36.7748 66.8046 36.7748C66.8846 36.7748 66.9246 36.8548 66.9246 37.0148C66.9246 37.1748 66.8846 37.2548 66.8046 37.2548C66.1913 37.2548 65.7113 37.2415 65.3646 37.2148L63.2046 37.1748L61.0046 37.2148C60.6579 37.2415 60.1779 37.2548 59.5646 37.2548C59.4846 37.2548 59.4446 37.1748 59.4446 37.0148C59.4446 36.8548 59.4846 36.7748 59.5646 36.7748C60.2846 36.7748 60.8179 36.7082 61.1646 36.5748C61.5113 36.4148 61.7379 36.1482 61.8446 35.7748C61.9779 35.4015 62.0446 34.8148 62.0446 34.0148V26.0948C62.0446 25.1882 61.9379 24.5348 61.7246 24.1348C61.5113 23.7348 61.1513 23.5348 60.6446 23.5348C60.2179 23.5348 59.4979 23.7348 58.4846 24.1348H58.4046C58.2979 24.1348 58.2179 24.0815 58.1646 23.9748C58.1379 23.8415 58.1779 23.7482 58.2846 23.6948L62.9246 21.4948L63.1646 21.4548C63.4046 21.4548 63.6579 21.7615 63.9246 22.3748C64.1913 22.9882 64.3246 23.7748 64.3246 24.7348C65.3379 23.5615 66.3379 22.6948 67.3246 22.1348C68.3379 21.5748 69.3779 21.2948 70.4446 21.2948C71.9379 21.2948 73.0846 21.7082 73.8846 22.5348C74.6846 23.3615 75.0846 24.5748 75.0846 26.1748V34.0148C75.0846 34.8148 75.1379 35.4015 75.2446 35.7748C75.3779 36.1482 75.6179 36.4148 75.9646 36.5748C76.3113 36.7082 76.8446 36.7748 77.5646 36.7748ZM90.8687 35.1748C90.9753 35.1748 91.0553 35.2415 91.1086 35.3748C91.162 35.4815 91.1487 35.5615 91.0687 35.6148C90.082 36.3882 89.1887 36.9348 88.3887 37.2548C87.6153 37.5748 86.802 37.7348 85.9487 37.7348C84.8287 37.7348 83.9087 37.4815 83.1887 36.9748C82.4687 36.4682 82.1087 35.6282 82.1087 34.4548V25.0548C82.1087 24.3615 82.0553 23.8682 81.9487 23.5748C81.8687 23.2815 81.6953 23.0948 81.4287 23.0148C81.162 22.9082 80.7087 22.8548 80.0686 22.8548C79.962 22.8548 79.9086 22.7748 79.9086 22.6148C79.9086 22.4282 79.962 22.3348 80.0686 22.3348C81.1353 22.3082 82.002 22.0282 82.6687 21.4948C83.3353 20.9348 83.722 20.2015 83.8287 19.2948C83.8287 19.2148 83.9353 19.1748 84.1487 19.1748C84.3353 19.1748 84.4287 19.2148 84.4287 19.2948V22.2548C85.762 22.2282 87.6153 22.0948 89.9887 21.8548C90.042 21.8548 90.0953 21.9615 90.1487 22.1748C90.2287 22.3615 90.2687 22.5748 90.2687 22.8148C90.2687 23.0282 90.2153 23.2548 90.1087 23.4948C90.0287 23.7082 89.9353 23.8015 89.8287 23.7748C88.362 23.4015 86.562 23.1882 84.4287 23.1348V33.0948C84.4287 34.1882 84.6953 35.0015 85.2286 35.5348C85.7887 36.0682 86.5753 36.3348 87.5887 36.3348C88.762 36.3348 89.8287 35.9615 90.7887 35.2148L90.8687 35.1748Z" fill="#3F3F3F"/>
<path d="M71.3399 60.6723C71.3399 61.0563 71.3879 61.3383 71.4839 61.5183C71.5919 61.6863 71.7899 61.8063 72.0779 61.8783C72.3779 61.9503 72.8459 61.9863 73.4819 61.9863C73.5179 61.9863 73.5359 62.0223 73.5359 62.0943C73.5359 62.1663 73.5179 62.2023 73.4819 62.2023C72.9899 62.2023 72.6059 62.1963 72.3299 62.1843L70.7639 62.1663L69.5579 62.1843C69.3299 62.1963 69.0239 62.2023 68.6399 62.2023C68.6159 62.2023 68.6039 62.1663 68.6039 62.0943C68.6039 62.0223 68.6159 61.9863 68.6399 61.9863C69.0959 61.9863 69.4259 61.9563 69.6299 61.8963C69.8459 61.8363 69.9899 61.7223 70.0619 61.5543C70.1339 61.3743 70.1699 61.1043 70.1699 60.7443V52.4103C70.1699 52.0503 70.1339 51.7863 70.0619 51.6183C69.9899 51.4503 69.8459 51.3363 69.6299 51.2763C69.4259 51.2043 69.0959 51.1683 68.6399 51.1683C68.6159 51.1683 68.6039 51.1323 68.6039 51.0603C68.6039 50.9883 68.6159 50.9523 68.6399 50.9523L69.5399 50.9703C70.0439 50.9943 70.4459 51.0063 70.7459 51.0063C71.0459 51.0063 71.3819 50.9883 71.7539 50.9523C71.8979 50.9523 72.1259 50.9463 72.4379 50.9343C72.7499 50.9103 73.0199 50.8983 73.2479 50.8983C74.3519 50.8983 75.2339 51.1443 75.8939 51.6363C76.5659 52.1283 76.9019 52.8783 76.9019 53.8863C76.9019 54.6783 76.7039 55.3443 76.3079 55.8843C75.9239 56.4243 75.4259 56.8263 74.8139 57.0903C74.2019 57.3543 73.5719 57.4863 72.9239 57.4863C72.5759 57.4863 72.2879 57.4563 72.0599 57.3963C72.0239 57.3963 72.0059 57.3663 72.0059 57.3063C72.0059 57.2703 72.0119 57.2343 72.0239 57.1983C72.0479 57.1623 72.0719 57.1503 72.0959 57.1623C72.2879 57.2103 72.5039 57.2343 72.7439 57.2343C73.5359 57.2343 74.2019 56.9763 74.7419 56.4603C75.2939 55.9443 75.5699 55.2003 75.5699 54.2283C75.5699 53.2803 75.3119 52.5363 74.7959 51.9963C74.2799 51.4443 73.6199 51.1683 72.8159 51.1683C72.3839 51.1683 72.0719 51.1923 71.8799 51.2403C71.6879 51.2883 71.5499 51.4023 71.4659 51.5823C71.3819 51.7503 71.3399 52.0383 71.3399 52.4463V60.6723ZM82.5722 55.0923C82.8362 55.0923 83.0882 55.1643 83.3282 55.3083C83.5682 55.4523 83.6882 55.6263 83.6882 55.8303C83.6882 55.9863 83.6342 56.1183 83.5262 56.2263C83.4302 56.3343 83.2862 56.3883 83.0942 56.3883C82.9862 56.3883 82.8902 56.3703 82.8062 56.3343C82.7342 56.2863 82.6442 56.2203 82.5362 56.1363C82.4282 56.0403 82.3262 55.9683 82.2302 55.9203C82.1342 55.8723 82.0202 55.8483 81.8882 55.8483C81.7322 55.8483 81.5642 55.9143 81.3842 56.0463C81.2162 56.1663 80.9462 56.4423 80.5742 56.8743V60.7443C80.5742 61.1043 80.6162 61.3683 80.7002 61.5363C80.7962 61.7043 80.9642 61.8243 81.2042 61.8963C81.4442 61.9563 81.8162 61.9863 82.3202 61.9863C82.3682 61.9863 82.3922 62.0223 82.3922 62.0943C82.3922 62.1663 82.3682 62.2023 82.3202 62.2023C81.9362 62.2023 81.6302 62.1963 81.4022 62.1843L80.0702 62.1663L79.0802 62.1843C78.9242 62.1963 78.7082 62.2023 78.4322 62.2023C78.3962 62.2023 78.3782 62.1663 78.3782 62.0943C78.3782 62.0223 78.3962 61.9863 78.4322 61.9863C78.7562 61.9863 78.9962 61.9563 79.1522 61.8963C79.3082 61.8243 79.4102 61.7043 79.4582 61.5363C79.5182 61.3683 79.5482 61.1043 79.5482 60.7443V57.1803C79.5482 56.7723 79.5002 56.4783 79.4042 56.2983C79.3082 56.1183 79.1462 56.0283 78.9182 56.0283C78.7262 56.0283 78.4022 56.1183 77.9462 56.2983H77.9102C77.8622 56.2983 77.8262 56.2743 77.8022 56.2263C77.7902 56.1663 77.8082 56.1243 77.8562 56.1003L79.9442 55.1103C79.9682 55.0983 80.0042 55.0923 80.0522 55.0923C80.1602 55.0923 80.2742 55.2303 80.3942 55.5063C80.5142 55.7823 80.5742 56.1363 80.5742 56.5683V56.5863C81.0662 56.0103 81.4562 55.6203 81.7442 55.4163C82.0322 55.2003 82.3082 55.0923 82.5722 55.0923ZM88.1259 62.4363C87.4299 62.4363 86.8119 62.2683 86.2719 61.9323C85.7439 61.5843 85.3359 61.1223 85.0479 60.5463C84.7599 59.9583 84.6159 59.3223 84.6159 58.6383C84.6159 57.8583 84.8019 57.1983 85.1739 56.6583C85.5579 56.1063 86.0439 55.6983 86.6319 55.4343C87.2319 55.1583 87.8379 55.0203 88.4499 55.0203C89.1579 55.0203 89.7759 55.1943 90.3039 55.5423C90.8319 55.8903 91.2339 56.3523 91.5099 56.9283C91.7979 57.4923 91.9419 58.0923 91.9419 58.7283C91.9419 59.4723 91.7679 60.1263 91.4199 60.6903C91.0719 61.2423 90.6039 61.6743 90.0159 61.9863C89.4399 62.2863 88.8099 62.4363 88.1259 62.4363ZM88.6479 62.0943C89.3079 62.0943 89.8179 61.8603 90.1779 61.3923C90.5379 60.9243 90.7179 60.2043 90.7179 59.2323C90.7179 58.4883 90.5919 57.8223 90.3399 57.2343C90.0999 56.6463 89.7639 56.1903 89.3319 55.8663C88.8999 55.5303 88.4079 55.3623 87.8559 55.3623C87.2079 55.3623 86.7039 55.5963 86.3439 56.0643C85.9959 56.5323 85.8219 57.2043 85.8219 58.0803C85.8219 58.8123 85.9419 59.4843 86.1819 60.0963C86.4219 60.7083 86.7579 61.1943 87.1899 61.5543C87.6219 61.9143 88.1079 62.0943 88.6479 62.0943ZM98.3231 55.0203C98.8151 55.0203 99.2711 55.1523 99.6911 55.4163C100.111 55.6803 100.447 56.0643 100.699 56.5683C100.951 57.0723 101.077 57.6603 101.077 58.3323C101.077 59.2323 100.873 59.9943 100.465 60.6183C100.057 61.2303 99.5531 61.6863 98.9531 61.9863C98.3651 62.2863 97.7831 62.4363 97.2071 62.4363C96.8351 62.4363 96.4991 62.4003 96.1991 62.3283C95.9111 62.2563 95.6111 62.1363 95.2991 61.9683V65.6943C95.2991 66.0543 95.3411 66.3183 95.4251 66.4863C95.5211 66.6543 95.6951 66.7683 95.9471 66.8283C96.1991 66.9003 96.5831 66.9363 97.0991 66.9363C97.1231 66.9363 97.1351 66.9723 97.1351 67.0443C97.1351 67.1163 97.1231 67.1523 97.0991 67.1523C96.6911 67.1523 96.3671 67.1463 96.1271 67.1343L94.8131 67.1163L93.8231 67.1343C93.6551 67.1463 93.4331 67.1523 93.1571 67.1523C93.1211 67.1523 93.1031 67.1163 93.1031 67.0443C93.1031 66.9723 93.1211 66.9363 93.1571 66.9363C93.4811 66.9363 93.7211 66.9003 93.8771 66.8283C94.0331 66.7683 94.1411 66.6543 94.2011 66.4863C94.2611 66.3183 94.2911 66.0543 94.2911 65.6943V57.2343C94.2911 56.8023 94.2431 56.4963 94.1471 56.3163C94.0511 56.1243 93.8831 56.0283 93.6431 56.0283C93.3791 56.0283 93.0611 56.1123 92.6891 56.2803L92.6531 56.2983C92.6051 56.2983 92.5751 56.2683 92.5631 56.2083C92.5391 56.1483 92.5451 56.1063 92.5811 56.0823L94.5791 55.1283C94.6031 55.1163 94.6451 55.1103 94.7051 55.1103C94.8731 55.1103 95.0111 55.2363 95.1191 55.4883C95.2271 55.7403 95.2871 56.1003 95.2991 56.5683C96.3191 55.5363 97.3271 55.0203 98.3231 55.0203ZM97.7471 62.0583C98.3831 62.0583 98.9051 61.7823 99.3131 61.2303C99.7211 60.6663 99.9251 59.8863 99.9251 58.8903C99.9251 57.8823 99.7031 57.1023 99.2591 56.5503C98.8151 55.9863 98.2511 55.7043 97.5671 55.7043C97.1471 55.7043 96.7571 55.8063 96.3971 56.0103C96.0371 56.2143 95.6711 56.5023 95.2991 56.8743V60.9243C95.6231 61.2963 95.9771 61.5783 96.3611 61.7703C96.7451 61.9623 97.2071 62.0583 97.7471 62.0583ZM108.326 61.1943C108.362 61.1943 108.392 61.2183 108.416 61.2663C108.452 61.3023 108.458 61.3383 108.434 61.3743C107.618 62.0703 106.742 62.4183 105.806 62.4183C105.098 62.4183 104.486 62.2563 103.97 61.9323C103.454 61.6083 103.064 61.1883 102.8 60.6723C102.548 60.1443 102.422 59.5743 102.422 58.9623C102.422 58.2423 102.59 57.5883 102.926 57.0003C103.274 56.4123 103.742 55.9503 104.33 55.6143C104.918 55.2663 105.572 55.0923 106.292 55.0923C106.94 55.0923 107.444 55.2543 107.804 55.5783C108.164 55.8903 108.344 56.3223 108.344 56.8743C108.344 57.0183 108.326 57.1263 108.29 57.1983C108.266 57.2583 108.212 57.2883 108.128 57.2883L103.7 57.3243C103.64 57.6483 103.61 57.9603 103.61 58.2603C103.61 59.3043 103.862 60.1563 104.366 60.8163C104.87 61.4643 105.566 61.7883 106.454 61.7883C107.138 61.7883 107.756 61.5903 108.308 61.1943H108.326ZM105.68 55.4523C105.188 55.4523 104.774 55.5963 104.438 55.8843C104.114 56.1603 103.886 56.5563 103.754 57.0723L107.102 57.0003C107.102 56.5083 106.97 56.1303 106.706 55.8663C106.454 55.5903 106.112 55.4523 105.68 55.4523ZM114.072 55.0923C114.336 55.0923 114.588 55.1643 114.828 55.3083C115.068 55.4523 115.188 55.6263 115.188 55.8303C115.188 55.9863 115.134 56.1183 115.026 56.2263C114.93 56.3343 114.786 56.3883 114.594 56.3883C114.486 56.3883 114.39 56.3703 114.306 56.3343C114.234 56.2863 114.144 56.2203 114.036 56.1363C113.928 56.0403 113.826 55.9683 113.73 55.9203C113.634 55.8723 113.52 55.8483 113.388 55.8483C113.232 55.8483 113.064 55.9143 112.884 56.0463C112.716 56.1663 112.446 56.4423 112.074 56.8743V60.7443C112.074 61.1043 112.116 61.3683 112.2 61.5363C112.296 61.7043 112.464 61.8243 112.704 61.8963C112.944 61.9563 113.316 61.9863 113.82 61.9863C113.868 61.9863 113.892 62.0223 113.892 62.0943C113.892 62.1663 113.868 62.2023 113.82 62.2023C113.436 62.2023 113.13 62.1963 112.902 62.1843L111.57 62.1663L110.58 62.1843C110.424 62.1963 110.208 62.2023 109.932 62.2023C109.896 62.2023 109.878 62.1663 109.878 62.0943C109.878 62.0223 109.896 61.9863 109.932 61.9863C110.256 61.9863 110.496 61.9563 110.652 61.8963C110.808 61.8243 110.91 61.7043 110.958 61.5363C111.018 61.3683 111.048 61.1043 111.048 60.7443V57.1803C111.048 56.7723 111 56.4783 110.904 56.2983C110.808 56.1183 110.646 56.0283 110.418 56.0283C110.226 56.0283 109.902 56.1183 109.446 56.2983H109.41C109.362 56.2983 109.326 56.2743 109.302 56.2263C109.29 56.1663 109.308 56.1243 109.356 56.1003L111.444 55.1103C111.468 55.0983 111.504 55.0923 111.552 55.0923C111.66 55.0923 111.774 55.2303 111.894 55.5063C112.014 55.7823 112.074 56.1363 112.074 56.5683V56.5863C112.566 56.0103 112.956 55.6203 113.244 55.4163C113.532 55.2003 113.808 55.0923 114.072 55.0923ZM121.277 61.2663C121.325 61.2663 121.361 61.2963 121.385 61.3563C121.409 61.4043 121.403 61.4403 121.367 61.4643C120.923 61.8123 120.521 62.0583 120.161 62.2023C119.813 62.3463 119.447 62.4183 119.063 62.4183C118.559 62.4183 118.145 62.3043 117.821 62.0763C117.497 61.8483 117.335 61.4703 117.335 60.9423V56.7123C117.335 56.4003 117.311 56.1783 117.263 56.0463C117.227 55.9143 117.149 55.8303 117.029 55.7943C116.909 55.7463 116.705 55.7223 116.417 55.7223C116.369 55.7223 116.345 55.6863 116.345 55.6143C116.345 55.5303 116.369 55.4883 116.417 55.4883C116.897 55.4763 117.287 55.3503 117.587 55.1103C117.887 54.8583 118.061 54.5283 118.109 54.1203C118.109 54.0843 118.157 54.0663 118.253 54.0663C118.337 54.0663 118.379 54.0843 118.379 54.1203V55.4523C118.979 55.4403 119.813 55.3803 120.881 55.2723C120.905 55.2723 120.929 55.3203 120.953 55.4163C120.989 55.5003 121.007 55.5963 121.007 55.7043C121.007 55.8003 120.983 55.9023 120.935 56.0103C120.899 56.1063 120.857 56.1483 120.809 56.1363C120.149 55.9683 119.339 55.8723 118.379 55.8483V60.3303C118.379 60.8223 118.499 61.1883 118.739 61.4283C118.991 61.6683 119.345 61.7883 119.801 61.7883C120.353 61.7883 120.833 61.6203 121.241 61.2843L121.277 61.2663ZM122.715 62.2023C122.691 62.2023 122.679 62.1663 122.679 62.0943C122.679 62.0223 122.691 61.9863 122.715 61.9863C123.039 61.9863 123.279 61.9563 123.435 61.8963C123.603 61.8243 123.717 61.7043 123.777 61.5363C123.837 61.3563 123.867 61.0923 123.867 60.7443V57.3783C123.867 56.9463 123.819 56.6343 123.723 56.4423C123.639 56.2503 123.489 56.1543 123.273 56.1543C123.057 56.1543 122.787 56.2383 122.463 56.4063H122.445C122.397 56.4063 122.361 56.3763 122.337 56.3163C122.313 56.2563 122.319 56.2143 122.355 56.1903L124.695 55.1103L124.767 55.0923C124.791 55.0923 124.821 55.1103 124.857 55.1463C124.893 55.1703 124.911 55.2003 124.911 55.2363C124.911 55.3203 124.905 55.5603 124.893 55.9563C124.881 56.3523 124.875 56.8203 124.875 57.3603V60.7443C124.875 61.1043 124.905 61.3683 124.965 61.5363C125.025 61.7043 125.133 61.8243 125.289 61.8963C125.445 61.9563 125.685 61.9863 126.009 61.9863C126.045 61.9863 126.063 62.0223 126.063 62.0943C126.063 62.1663 126.045 62.2023 126.009 62.2023C125.733 62.2023 125.511 62.1963 125.343 62.1843L124.371 62.1663L123.399 62.1843C123.231 62.1963 123.003 62.2023 122.715 62.2023ZM124.227 52.9863C123.975 52.9863 123.777 52.9203 123.633 52.7883C123.501 52.6563 123.435 52.4703 123.435 52.2303C123.435 51.9903 123.501 51.8043 123.633 51.6723C123.777 51.5403 123.975 51.4743 124.227 51.4743C124.467 51.4743 124.653 51.5403 124.785 51.6723C124.917 51.8043 124.983 51.9903 124.983 52.2303C124.983 52.4703 124.917 52.6563 124.785 52.7883C124.653 52.9203 124.467 52.9863 124.227 52.9863ZM133.235 61.1943C133.271 61.1943 133.301 61.2183 133.325 61.2663C133.361 61.3023 133.367 61.3383 133.343 61.3743C132.527 62.0703 131.651 62.4183 130.715 62.4183C130.007 62.4183 129.395 62.2563 128.879 61.9323C128.363 61.6083 127.973 61.1883 127.709 60.6723C127.457 60.1443 127.331 59.5743 127.331 58.9623C127.331 58.2423 127.499 57.5883 127.835 57.0003C128.183 56.4123 128.651 55.9503 129.239 55.6143C129.827 55.2663 130.481 55.0923 131.201 55.0923C131.849 55.0923 132.353 55.2543 132.713 55.5783C133.073 55.8903 133.253 56.3223 133.253 56.8743C133.253 57.0183 133.235 57.1263 133.199 57.1983C133.175 57.2583 133.121 57.2883 133.037 57.2883L128.609 57.3243C128.549 57.6483 128.519 57.9603 128.519 58.2603C128.519 59.3043 128.771 60.1563 129.275 60.8163C129.779 61.4643 130.475 61.7883 131.363 61.7883C132.047 61.7883 132.665 61.5903 133.217 61.1943H133.235ZM130.589 55.4523C130.097 55.4523 129.683 55.5963 129.347 55.8843C129.023 56.1603 128.795 56.5563 128.663 57.0723L132.011 57.0003C132.011 56.5083 131.879 56.1303 131.615 55.8663C131.363 55.5903 131.021 55.4523 130.589 55.4523ZM135.83 56.3523C135.83 56.7723 135.968 57.1083 136.244 57.3603C136.52 57.6003 136.928 57.8583 137.468 58.1343C137.888 58.3503 138.212 58.5363 138.44 58.6923C138.68 58.8483 138.884 59.0523 139.052 59.3043C139.22 59.5563 139.304 59.8623 139.304 60.2223C139.304 60.8343 139.076 61.3503 138.62 61.7703C138.164 62.1903 137.546 62.4003 136.766 62.4003C136.13 62.4003 135.554 62.2203 135.038 61.8603C134.966 61.8123 134.93 61.7403 134.93 61.6443L134.894 60.2403C134.894 60.2043 134.924 60.1863 134.984 60.1863C135.056 60.1743 135.098 60.1863 135.11 60.2223C135.338 60.8223 135.632 61.2783 135.992 61.5903C136.364 61.9023 136.79 62.0583 137.27 62.0583C137.642 62.0583 137.93 61.9743 138.134 61.8063C138.35 61.6263 138.458 61.3623 138.458 61.0143C138.458 60.6783 138.38 60.3963 138.224 60.1683C138.08 59.9283 137.9 59.7423 137.684 59.6103C137.468 59.4663 137.174 59.2983 136.802 59.1063C136.406 58.9143 136.088 58.7403 135.848 58.5843C135.62 58.4283 135.422 58.2243 135.254 57.9723C135.098 57.7203 135.02 57.4083 135.02 57.0363C135.02 56.3883 135.26 55.8963 135.74 55.5603C136.232 55.2123 136.808 55.0383 137.468 55.0383C137.948 55.0383 138.386 55.1283 138.782 55.3083C138.854 55.3323 138.896 55.3623 138.908 55.3983C138.932 55.4223 138.944 55.4583 138.944 55.5063C138.944 55.7463 138.938 55.9323 138.926 56.0643L138.908 56.8203C138.908 56.8443 138.872 56.8563 138.8 56.8563C138.728 56.8563 138.692 56.8443 138.692 56.8203C138.692 56.5683 138.596 56.3343 138.404 56.1183C138.212 55.8903 137.972 55.7103 137.684 55.5783C137.396 55.4463 137.108 55.3803 136.82 55.3803C136.508 55.3803 136.262 55.4643 136.082 55.6323C135.914 55.7883 135.83 56.0283 135.83 56.3523Z" fill="#3F3F3F"/>
<path d="M102.182 23.0459H106.24V27.2265H102.182V23.0459Z" fill="#EA5656"/>
</svg>
