<svg width="213" height="65" viewBox="0 0 213 65" fill="none" xmlns="http://www.w3.org/2000/svg">
<path d="M116.324 39.7563V11.1625H119.508L137.145 35.4398V27.7641V11.1625H139.664V39.7563H137.086L118.922 14.5609C118.922 14.5609 118.922 17.2628 118.922 22.6664V39.7563H116.324ZM152.784 19.3656C155.349 19.3656 157.42 20.251 158.995 22.0219C160.571 23.7797 161.359 26.3513 161.359 29.7367C161.359 33.0961 160.584 35.6872 159.034 37.5102C157.498 39.3201 155.408 40.225 152.765 40.225C150.122 40.225 148.025 39.3266 146.476 37.5297C144.939 35.7198 144.171 33.1417 144.171 29.7953C144.171 26.3839 144.959 23.7927 146.534 22.0219C148.11 20.251 150.193 19.3656 152.784 19.3656ZM152.765 21.3969C151.671 21.3969 150.734 21.6378 149.952 22.1195C149.171 22.5883 148.572 23.2393 148.155 24.0727C147.752 24.906 147.459 25.7849 147.277 26.7094C147.094 27.6339 147.003 28.643 147.003 29.7367C147.003 30.6091 147.055 31.4294 147.159 32.1977C147.264 32.9659 147.452 33.7276 147.726 34.4828C147.999 35.225 148.344 35.863 148.761 36.3969C149.191 36.9307 149.744 37.3604 150.421 37.6859C151.111 38.0115 151.899 38.1742 152.784 38.1742C153.657 38.1742 154.432 38.0115 155.109 37.6859C155.799 37.3604 156.352 36.9372 156.769 36.4164C157.198 35.8826 157.55 35.2445 157.823 34.5023C158.097 33.7602 158.286 33.005 158.39 32.2367C158.494 31.4685 158.546 30.6482 158.546 29.7758C158.546 28.9164 158.487 28.1026 158.37 27.3344C158.266 26.5662 158.077 25.8109 157.804 25.0688C157.53 24.3266 157.179 23.6951 156.749 23.1742C156.333 22.6404 155.779 22.2107 155.089 21.8852C154.412 21.5596 153.637 21.3969 152.765 21.3969ZM168.034 19.7758V23.5258C168.398 22.6273 168.926 21.8852 169.616 21.2992C170.306 20.7003 171.009 20.2966 171.725 20.0883C172.454 19.8669 173.216 19.7563 174.01 19.7563V22.2758C172.929 22.2758 171.992 22.4711 171.198 22.8617C170.416 23.2523 169.804 23.7927 169.362 24.4828C168.932 25.1729 168.613 25.9216 168.405 26.7289C168.209 27.5362 168.112 28.4151 168.112 29.3656V39.7563H165.338V19.7758H168.034ZM185.763 37.3148L186.232 39.1313C185.255 39.7563 184.11 40.0688 182.795 40.0688C181.076 40.0688 179.826 39.5479 179.045 38.5063C178.276 37.4516 177.892 35.7523 177.892 33.4086V21.7094H174.904V19.7758H178.068V13.3891L180.666 12.6664V19.7758H185.041V21.7094H180.666V34.6586C180.666 36.8721 181.564 37.9789 183.361 37.9789C183.96 37.9789 184.761 37.7576 185.763 37.3148ZM198.298 21.3969C197.334 21.3969 196.475 21.5596 195.72 21.8852C194.977 22.2107 194.365 22.6469 193.884 23.1938C193.402 23.7276 193.005 24.3852 192.692 25.1664C192.38 25.9346 192.158 26.7419 192.028 27.5883C191.911 28.4346 191.852 29.3461 191.852 30.3227V39.7563H189.079V10.9867H191.852V19.1898V22.9203C193.376 20.5505 195.661 19.3656 198.708 19.3656C199.593 19.3656 200.387 19.4698 201.091 19.6781C201.807 19.8734 202.399 20.1339 202.868 20.4594C203.35 20.7849 203.766 21.1951 204.118 21.6898C204.47 22.1846 204.743 22.6794 204.938 23.1742C205.134 23.669 205.29 24.2419 205.407 24.893C205.524 25.531 205.596 26.1104 205.622 26.6313C205.661 27.1521 205.68 27.7315 205.68 28.3695V39.7563H202.907V28.1547C202.907 25.9281 202.562 24.2484 201.872 23.1156C201.195 21.9698 200.003 21.3969 198.298 21.3969Z" fill="#3F3F3F"/>
<path d="M8.0684 40V11.4062H16.4864C21.1478 11.4062 24.4356 11.9922 26.3496 13.1641C28.2637 14.3229 29.2207 16.3477 29.2207 19.2383C29.2207 20.5664 29.0515 21.7057 28.7129 22.6562C28.3874 23.5938 27.8926 24.388 27.2286 25.0391C26.5645 25.6901 25.6595 26.2044 24.5137 26.582C23.3809 26.9466 22.0853 27.207 20.627 27.3633C19.1687 27.5195 17.4043 27.5977 15.334 27.5977H10.9981V40H8.0684ZM11.1153 13.6328V25.3906H16.4278C17.9121 25.3906 19.1687 25.3385 20.1973 25.2344C21.2259 25.1172 22.1504 24.9284 22.9707 24.668C23.7911 24.4076 24.4356 24.0495 24.9043 23.5938C25.3731 23.138 25.7246 22.5716 25.959 21.8945C26.2064 21.2044 26.3301 20.3711 26.3301 19.3945C26.3301 18.418 26.2064 17.5977 25.959 16.9336C25.7116 16.2565 25.347 15.7031 24.8653 15.2734C24.3965 14.8307 23.7325 14.4922 22.8731 14.2578C22.0137 14.0234 21.0567 13.8607 20.002 13.7695C18.9473 13.6784 17.6257 13.6328 16.0371 13.6328H11.1153ZM40.0801 19.6094C42.6452 19.6094 44.7155 20.4948 46.2911 22.2656C47.8666 24.0234 48.6543 26.5951 48.6543 29.9805C48.6543 33.3398 47.8796 35.931 46.3301 37.7539C44.7937 39.5638 42.7038 40.4688 40.0606 40.4688C37.4174 40.4688 35.321 39.5703 33.7715 37.7734C32.2351 35.9635 31.4668 33.3854 31.4668 30.0391C31.4668 26.6276 32.2546 24.0365 33.8301 22.2656C35.4056 20.4948 37.489 19.6094 40.0801 19.6094ZM40.0606 21.6406C38.9668 21.6406 38.0293 21.8815 37.2481 22.3633C36.4668 22.832 35.8679 23.4831 35.4512 24.3164C35.0476 25.1497 34.7546 26.0286 34.5723 26.9531C34.39 27.8776 34.2989 28.8867 34.2989 29.9805C34.2989 30.8529 34.3509 31.6732 34.4551 32.4414C34.5593 33.2096 34.7481 33.9714 35.0215 34.7266C35.295 35.4688 35.64 36.1068 36.0567 36.6406C36.4864 37.1745 37.0398 37.6042 37.7168 37.9297C38.4069 38.2552 39.1947 38.418 40.0801 38.418C40.9525 38.418 41.7273 38.2552 42.4043 37.9297C43.0944 37.6042 43.6478 37.181 44.0645 36.6602C44.4942 36.1263 44.8457 35.4883 45.1192 34.7461C45.3926 34.0039 45.5814 33.2487 45.6856 32.4805C45.7898 31.7122 45.8418 30.8919 45.8418 30.0195C45.8418 29.1602 45.7832 28.3464 45.6661 27.5781C45.5619 26.8099 45.3731 26.0547 45.0996 25.3125C44.8262 24.5703 44.4746 23.9388 44.045 23.418C43.6283 22.8841 43.0749 22.4544 42.3848 22.1289C41.7077 21.8034 40.933 21.6406 40.0606 21.6406ZM53.0879 15.7422V12.2461H55.8418V15.7422H53.0879ZM53.127 40V20.0195H55.9004V40H53.127ZM60.9395 40V20.0195H63.6348C63.6348 20.1758 63.6348 20.3841 63.6348 20.6445C63.6348 20.9049 63.6348 21.3151 63.6348 21.875C63.6348 22.4219 63.6348 22.8776 63.6348 23.2422V23.7891C63.8822 23.0729 64.2663 22.4414 64.7871 21.8945C65.308 21.3346 65.8939 20.8984 66.545 20.5859C67.209 20.2604 67.8861 20.0195 68.5762 19.8633C69.2663 19.694 69.9499 19.6094 70.627 19.6094C71.3952 19.6094 72.0918 19.681 72.7168 19.8242C73.3549 19.9674 73.8952 20.1823 74.3379 20.4688C74.7806 20.7422 75.1713 21.0482 75.5098 21.3867C75.8483 21.7122 76.1218 22.1159 76.3301 22.5977C76.5384 23.0794 76.7077 23.5417 76.8379 23.9844C76.9812 24.4141 77.0853 24.9219 77.1504 25.5078C77.2155 26.0938 77.2546 26.6081 77.2676 27.0508C77.2937 27.4935 77.3067 28.0078 77.3067 28.5938V40H74.5332V28.2227C74.5332 27.3893 74.4942 26.6602 74.4161 26.0352C74.3509 25.4102 74.2207 24.8242 74.0254 24.2773C73.8301 23.7305 73.5697 23.2878 73.2442 22.9492C72.9317 22.5977 72.5215 22.3242 72.0137 22.1289C71.5189 21.9336 70.9265 21.8359 70.2364 21.8359C69.2338 21.8359 68.3483 21.9792 67.5801 22.2656C66.8249 22.5521 66.1999 22.9427 65.7051 23.4375C65.2233 23.9323 64.8327 24.5443 64.5332 25.2734C64.2338 26.0026 64.0189 26.7708 63.8887 27.5781C63.7715 28.3724 63.7129 29.2643 63.7129 30.2539V40H60.9395ZM91.2715 37.5586L91.7403 39.375C90.7637 40 89.6179 40.3125 88.3028 40.3125C86.584 40.3125 85.334 39.7917 84.5528 38.75C83.7845 37.6953 83.4004 35.9961 83.4004 33.6523V21.9531H80.4121V20.0195H83.5762V13.6328L86.1739 12.9102V20.0195H90.5489V21.9531H86.1739V34.9023C86.1739 37.1159 87.0723 38.2227 88.8692 38.2227C89.4681 38.2227 90.2689 38.0013 91.2715 37.5586Z" fill="#3F3F3F"/>
<path d="M65.0797 48.22H70.0837C70.6837 48.22 71.1997 48.382 71.6317 48.706C72.0757 49.018 72.4057 49.426 72.6217 49.93C72.8497 50.434 72.9637 50.968 72.9637 51.532C72.9637 52.108 72.8437 52.678 72.6037 53.242C72.3757 53.806 72.0517 54.322 71.6317 54.79C71.2237 55.246 70.7497 55.612 70.2097 55.888C69.6697 56.152 69.0997 56.284 68.4997 56.284H64.6117L63.6037 61H62.3617L65.0797 48.22ZM68.6617 55.168C69.0817 55.168 69.4717 55.066 69.8317 54.862C70.2037 54.658 70.5277 54.388 70.8037 54.052C71.0797 53.704 71.2957 53.326 71.4517 52.918C71.6077 52.498 71.6857 52.072 71.6857 51.64C71.6857 51.196 71.6017 50.806 71.4337 50.47C71.2777 50.122 71.0557 49.846 70.7677 49.642C70.4917 49.438 70.1677 49.336 69.7957 49.336H66.0877L64.8457 55.168H68.6617ZM74.8471 51.622H75.9991L75.5131 53.872C75.9811 53.2 76.5151 52.66 77.1151 52.252C77.7151 51.844 78.3151 51.628 78.9151 51.604C79.0111 51.604 79.0951 51.61 79.1671 51.622C79.2391 51.622 79.2991 51.628 79.3471 51.64L79.1131 52.702C78.3451 52.726 77.6191 52.954 76.9351 53.386C76.2511 53.818 75.7111 54.412 75.3151 55.168L74.0911 61H72.8671L74.8471 51.622ZM82.6793 61.18C81.8633 61.18 81.1853 61.006 80.6453 60.658C80.1053 60.298 79.7033 59.818 79.4393 59.218C79.1753 58.618 79.0433 57.958 79.0433 57.238C79.0433 56.446 79.1873 55.702 79.4753 55.006C79.7753 54.31 80.1773 53.698 80.6813 53.17C81.1853 52.63 81.7673 52.21 82.4273 51.91C83.0993 51.61 83.8013 51.46 84.5333 51.46C85.3373 51.46 86.0093 51.64 86.5493 52C87.1013 52.36 87.5093 52.84 87.7733 53.44C88.0373 54.028 88.1693 54.688 88.1693 55.42C88.1693 56.212 88.0253 56.956 87.7373 57.652C87.4493 58.348 87.0473 58.96 86.5313 59.488C86.0273 60.016 85.4453 60.43 84.7853 60.73C84.1253 61.03 83.4233 61.18 82.6793 61.18ZM82.8953 60.1C83.3993 60.1 83.8913 59.992 84.3713 59.776C84.8513 59.548 85.2773 59.23 85.6493 58.822C86.0333 58.414 86.3393 57.94 86.5673 57.4C86.7953 56.848 86.9093 56.248 86.9093 55.6C86.9093 55.024 86.8073 54.508 86.6033 54.052C86.4113 53.584 86.1233 53.218 85.7393 52.954C85.3673 52.678 84.8933 52.54 84.3173 52.54C83.8133 52.54 83.3213 52.654 82.8413 52.882C82.3613 53.11 81.9293 53.434 81.5453 53.854C81.1733 54.262 80.8733 54.742 80.6453 55.294C80.4173 55.834 80.3033 56.428 80.3033 57.076C80.3033 57.652 80.3993 58.174 80.5913 58.642C80.7953 59.098 81.0893 59.458 81.4733 59.722C81.8573 59.974 82.3313 60.1 82.8953 60.1ZM91.0897 51.622H92.1697L91.7917 53.44C92.2717 52.852 92.8417 52.378 93.5017 52.018C94.1737 51.646 94.8457 51.46 95.5177 51.46C96.2137 51.46 96.8077 51.646 97.2997 52.018C97.8037 52.378 98.1877 52.858 98.4517 53.458C98.7157 54.058 98.8477 54.706 98.8477 55.402C98.8477 56.134 98.7097 56.848 98.4337 57.544C98.1577 58.228 97.7797 58.846 97.2997 59.398C96.8197 59.95 96.2677 60.388 95.6437 60.712C95.0197 61.024 94.3537 61.18 93.6457 61.18C92.9017 61.18 92.2837 60.976 91.7917 60.568C91.2997 60.16 90.9457 59.656 90.7297 59.056L89.5057 64.834H88.2817L91.0897 51.622ZM93.5377 60.1C94.0777 60.1 94.5877 59.968 95.0677 59.704C95.5597 59.44 95.9917 59.092 96.3637 58.66C96.7357 58.228 97.0297 57.742 97.2457 57.202C97.4617 56.662 97.5697 56.128 97.5697 55.6C97.5697 55.036 97.4617 54.526 97.2457 54.07C97.0417 53.602 96.7477 53.23 96.3637 52.954C95.9797 52.678 95.5237 52.54 94.9957 52.54C94.7077 52.54 94.3897 52.6 94.0417 52.72C93.7057 52.84 93.3697 53.014 93.0337 53.242C92.7097 53.458 92.4217 53.704 92.1697 53.98C91.9177 54.256 91.7317 54.55 91.6117 54.862L90.9997 57.742C91.0837 58.186 91.2397 58.588 91.4677 58.948C91.7077 59.296 92.0017 59.578 92.3497 59.794C92.7097 59.998 93.1057 60.1 93.5377 60.1ZM103.722 61.18C102.954 61.18 102.3 61.006 101.76 60.658C101.22 60.298 100.806 59.818 100.518 59.218C100.23 58.618 100.08 57.946 100.068 57.202C100.068 56.458 100.2 55.744 100.464 55.06C100.74 54.376 101.124 53.764 101.616 53.224C102.12 52.684 102.708 52.258 103.38 51.946C104.052 51.622 104.784 51.46 105.576 51.46C106.164 51.46 106.692 51.556 107.16 51.748C107.628 51.94 107.994 52.222 108.258 52.594C108.534 52.966 108.672 53.434 108.672 53.998C108.684 54.946 108.276 55.648 107.448 56.104C106.632 56.548 105.378 56.77 103.686 56.77C103.314 56.77 102.9 56.764 102.444 56.752C102 56.728 101.49 56.692 100.914 56.644L101.094 55.78C101.67 55.816 102.162 55.846 102.57 55.87C102.99 55.882 103.38 55.888 103.74 55.888C104.7 55.888 105.456 55.816 106.008 55.672C106.56 55.516 106.956 55.294 107.196 55.006C107.448 54.718 107.568 54.382 107.556 53.998C107.556 53.626 107.46 53.326 107.268 53.098C107.076 52.858 106.824 52.684 106.512 52.576C106.212 52.468 105.87 52.414 105.486 52.414C104.862 52.414 104.292 52.552 103.776 52.828C103.272 53.092 102.834 53.452 102.462 53.908C102.09 54.352 101.802 54.856 101.598 55.42C101.406 55.984 101.31 56.56 101.31 57.148C101.322 57.712 101.424 58.228 101.616 58.696C101.808 59.164 102.096 59.542 102.48 59.83C102.876 60.106 103.362 60.244 103.938 60.244C104.562 60.244 105.144 60.088 105.684 59.776C106.236 59.464 106.668 59.038 106.98 58.498L107.988 58.804C107.712 59.272 107.352 59.686 106.908 60.046C106.464 60.394 105.972 60.67 105.432 60.874C104.892 61.078 104.322 61.18 103.722 61.18ZM111.374 51.622H112.526L112.04 53.872C112.508 53.2 113.042 52.66 113.642 52.252C114.242 51.844 114.842 51.628 115.442 51.604C115.538 51.604 115.622 51.61 115.694 51.622C115.766 51.622 115.826 51.628 115.874 51.64L115.64 52.702C114.872 52.726 114.146 52.954 113.462 53.386C112.778 53.818 112.238 54.412 111.842 55.168L110.618 61H109.394L111.374 51.622ZM116.266 59.758C116.266 59.686 116.272 59.614 116.284 59.542C116.296 59.458 116.308 59.38 116.32 59.308L117.742 52.594H116.5L116.716 51.622H117.94L118.624 48.454H119.848L119.164 51.622H121.216L121 52.594H118.966L117.67 58.696C117.634 58.828 117.61 58.93 117.598 59.002C117.586 59.074 117.58 59.14 117.58 59.2C117.58 59.464 117.664 59.662 117.832 59.794C118 59.914 118.204 59.974 118.444 59.974C118.672 59.974 118.882 59.944 119.074 59.884C119.266 59.824 119.434 59.764 119.578 59.704C119.734 59.644 119.836 59.596 119.884 59.56L119.992 60.55C119.884 60.61 119.722 60.688 119.506 60.784C119.29 60.88 119.038 60.958 118.75 61.018C118.462 61.078 118.156 61.108 117.832 61.108C117.388 61.108 117.016 61 116.716 60.784C116.416 60.556 116.266 60.214 116.266 59.758ZM123.328 51.622H124.552L122.572 61H121.348L123.328 51.622ZM124.138 47.86H125.362L124.984 49.66H123.76L124.138 47.86ZM129.14 61.18C128.372 61.18 127.718 61.006 127.178 60.658C126.638 60.298 126.224 59.818 125.936 59.218C125.648 58.618 125.498 57.946 125.486 57.202C125.486 56.458 125.618 55.744 125.882 55.06C126.158 54.376 126.542 53.764 127.034 53.224C127.538 52.684 128.126 52.258 128.798 51.946C129.47 51.622 130.202 51.46 130.994 51.46C131.582 51.46 132.11 51.556 132.578 51.748C133.046 51.94 133.412 52.222 133.676 52.594C133.952 52.966 134.09 53.434 134.09 53.998C134.102 54.946 133.694 55.648 132.866 56.104C132.05 56.548 130.796 56.77 129.104 56.77C128.732 56.77 128.318 56.764 127.862 56.752C127.418 56.728 126.908 56.692 126.332 56.644L126.512 55.78C127.088 55.816 127.58 55.846 127.988 55.87C128.408 55.882 128.798 55.888 129.158 55.888C130.118 55.888 130.874 55.816 131.426 55.672C131.978 55.516 132.374 55.294 132.614 55.006C132.866 54.718 132.986 54.382 132.974 53.998C132.974 53.626 132.878 53.326 132.686 53.098C132.494 52.858 132.242 52.684 131.93 52.576C131.63 52.468 131.288 52.414 130.904 52.414C130.28 52.414 129.71 52.552 129.194 52.828C128.69 53.092 128.252 53.452 127.88 53.908C127.508 54.352 127.22 54.856 127.016 55.42C126.824 55.984 126.728 56.56 126.728 57.148C126.74 57.712 126.842 58.228 127.034 58.696C127.226 59.164 127.514 59.542 127.898 59.83C128.294 60.106 128.78 60.244 129.356 60.244C129.98 60.244 130.562 60.088 131.102 59.776C131.654 59.464 132.086 59.038 132.398 58.498L133.406 58.804C133.13 59.272 132.77 59.686 132.326 60.046C131.882 60.394 131.39 60.67 130.85 60.874C130.31 61.078 129.74 61.18 129.14 61.18ZM137.8 61.18C137.068 61.18 136.396 61.06 135.784 60.82C135.172 60.58 134.674 60.232 134.29 59.776L135.01 58.948C135.418 59.38 135.862 59.698 136.342 59.902C136.822 60.106 137.344 60.208 137.908 60.208C138.448 60.208 138.922 60.13 139.33 59.974C139.738 59.806 140.056 59.578 140.284 59.29C140.524 58.99 140.644 58.642 140.644 58.246C140.644 57.79 140.446 57.472 140.05 57.292C139.666 57.1 139.102 56.902 138.358 56.698C137.794 56.53 137.32 56.374 136.936 56.23C136.552 56.074 136.264 55.882 136.072 55.654C135.892 55.414 135.802 55.084 135.802 54.664C135.802 54.004 135.976 53.44 136.324 52.972C136.684 52.492 137.164 52.12 137.764 51.856C138.364 51.592 139.036 51.46 139.78 51.46C140.488 51.46 141.094 51.58 141.598 51.82C142.102 52.06 142.492 52.366 142.768 52.738L142.012 53.458C141.76 53.098 141.436 52.834 141.04 52.666C140.644 52.498 140.188 52.414 139.672 52.414C139.204 52.414 138.766 52.486 138.358 52.63C137.95 52.774 137.62 52.99 137.368 53.278C137.128 53.566 137.008 53.932 137.008 54.376C137.008 54.772 137.152 55.054 137.44 55.222C137.74 55.378 138.226 55.546 138.898 55.726C139.534 55.906 140.074 56.092 140.518 56.284C140.974 56.464 141.316 56.692 141.544 56.968C141.772 57.244 141.886 57.61 141.886 58.066C141.886 58.678 141.712 59.218 141.364 59.686C141.028 60.154 140.554 60.52 139.942 60.784C139.33 61.048 138.616 61.18 137.8 61.18Z" fill="#3F3F3F"/>
<path d="M100.711 22.8036H104.711V26.803H100.711V22.8036Z" fill="#EA5656"/>
</svg>
