<svg width="216" height="68" viewBox="0 0 216 68" fill="none" xmlns="http://www.w3.org/2000/svg">
<path d="M143.252 12C143.332 12 143.372 12.08 143.372 12.24C143.372 12.4 143.332 12.48 143.252 12.48C142.132 12.48 141.318 12.7867 140.812 13.4C140.305 14.0133 140.052 15.0133 140.052 16.4V37.48C140.052 37.5333 139.985 37.5733 139.852 37.6C139.718 37.6267 139.625 37.6133 139.572 37.56L121.172 15.28L120.812 14.88V32.64C120.812 34.0267 121.052 35.0267 121.532 35.64C122.038 36.2267 122.838 36.52 123.932 36.52C124.012 36.52 124.052 36.6 124.052 36.76C124.052 36.92 124.012 37 123.932 37C123.265 37 122.758 36.9867 122.412 36.96L120.412 36.92L118.372 36.96C117.998 36.9867 117.452 37 116.732 37C116.678 37 116.652 36.92 116.652 36.76C116.652 36.6 116.678 36.52 116.732 36.52C117.878 36.52 118.692 36.2267 119.172 35.64C119.652 35.0267 119.892 34.0267 119.892 32.64V13.92C118.852 12.96 117.798 12.48 116.732 12.48C116.652 12.48 116.612 12.4 116.612 12.24C116.612 12.08 116.652 12 116.732 12L118.212 12.04C118.532 12.0667 118.972 12.08 119.532 12.08C120.118 12.08 120.598 12.0667 120.972 12.04C121.345 12.0133 121.638 12 121.852 12C122.065 12 122.212 12.0533 122.292 12.16C122.398 12.24 122.558 12.44 122.772 12.76C123.092 13.24 123.412 13.68 123.732 14.08L139.132 33V16.4C139.132 15.0133 138.892 14.0133 138.412 13.4C137.958 12.7867 137.185 12.48 136.092 12.48C136.038 12.48 136.012 12.4 136.012 12.24C136.012 12.08 136.038 12 136.092 12L137.652 12.04C138.452 12.0933 139.105 12.12 139.612 12.12C140.092 12.12 140.758 12.0933 141.612 12.04L143.252 12ZM153.194 37.52C151.648 37.52 150.274 37.1467 149.074 36.4C147.901 35.6267 146.994 34.6 146.354 33.32C145.714 32.0133 145.394 30.6 145.394 29.08C145.394 27.3467 145.808 25.88 146.634 24.68C147.488 23.4533 148.568 22.5467 149.874 21.96C151.208 21.3467 152.554 21.04 153.914 21.04C155.488 21.04 156.861 21.4267 158.034 22.2C159.208 22.9733 160.101 24 160.714 25.28C161.354 26.5333 161.674 27.8667 161.674 29.28C161.674 30.9333 161.288 32.3867 160.514 33.64C159.741 34.8667 158.701 35.8267 157.394 36.52C156.114 37.1867 154.714 37.52 153.194 37.52ZM154.354 36.76C155.821 36.76 156.954 36.24 157.754 35.2C158.554 34.16 158.954 32.56 158.954 30.4C158.954 28.7467 158.674 27.2667 158.114 25.96C157.581 24.6533 156.834 23.64 155.874 22.92C154.914 22.1733 153.821 21.8 152.594 21.8C151.154 21.8 150.034 22.32 149.234 23.36C148.461 24.4 148.074 25.8933 148.074 27.84C148.074 29.4667 148.341 30.96 148.874 32.32C149.408 33.68 150.154 34.76 151.114 35.56C152.074 36.36 153.154 36.76 154.354 36.76ZM173.895 21.2C174.482 21.2 175.042 21.36 175.575 21.68C176.108 22 176.375 22.3867 176.375 22.84C176.375 23.1867 176.255 23.48 176.015 23.72C175.802 23.96 175.482 24.08 175.055 24.08C174.815 24.08 174.602 24.04 174.415 23.96C174.255 23.8533 174.055 23.7067 173.815 23.52C173.575 23.3067 173.348 23.1467 173.135 23.04C172.922 22.9333 172.668 22.88 172.375 22.88C172.028 22.88 171.655 23.0267 171.255 23.32C170.882 23.6133 170.282 24.24 169.455 25.2V33.76C169.455 34.56 169.548 35.1467 169.735 35.52C169.948 35.8933 170.322 36.16 170.855 36.32C171.388 36.4533 172.215 36.52 173.335 36.52C173.442 36.52 173.495 36.6 173.495 36.76C173.495 36.92 173.442 37 173.335 37C172.482 37 171.802 36.9867 171.295 36.96L168.335 36.92L166.135 36.96C165.788 36.9867 165.308 37 164.695 37C164.615 37 164.575 36.92 164.575 36.76C164.575 36.6 164.615 36.52 164.695 36.52C165.415 36.52 165.948 36.4533 166.295 36.32C166.642 36.16 166.868 35.8933 166.975 35.52C167.108 35.1467 167.175 34.56 167.175 33.76V25.84C167.175 24.9333 167.068 24.28 166.855 23.88C166.642 23.48 166.282 23.28 165.775 23.28C165.348 23.28 164.628 23.48 163.615 23.88H163.535C163.428 23.88 163.348 23.8267 163.295 23.72C163.268 23.5867 163.308 23.4933 163.415 23.44L168.055 21.24L168.295 21.2C168.535 21.2 168.788 21.5067 169.055 22.12C169.322 22.7333 169.455 23.52 169.455 24.48V24.52C170.548 23.24 171.415 22.3733 172.055 21.92C172.695 21.44 173.308 21.2 173.895 21.2ZM189.705 34.92C189.812 34.92 189.892 34.9867 189.945 35.12C189.999 35.2267 189.985 35.3067 189.905 35.36C188.919 36.1333 188.025 36.68 187.225 37C186.452 37.32 185.639 37.48 184.785 37.48C183.665 37.48 182.745 37.2267 182.025 36.72C181.305 36.2133 180.945 35.3733 180.945 34.2V24.8C180.945 24.1067 180.892 23.6133 180.785 23.32C180.705 23.0267 180.532 22.84 180.265 22.76C179.999 22.6533 179.545 22.6 178.905 22.6C178.799 22.6 178.745 22.52 178.745 22.36C178.745 22.1733 178.799 22.08 178.905 22.08C179.972 22.0533 180.839 21.7733 181.505 21.24C182.172 20.68 182.559 19.9467 182.665 19.04C182.665 18.96 182.772 18.92 182.985 18.92C183.172 18.92 183.265 18.96 183.265 19.04V22C184.599 21.9733 186.452 21.84 188.825 21.6C188.879 21.6 188.932 21.7067 188.985 21.92C189.065 22.1067 189.105 22.32 189.105 22.56C189.105 22.7733 189.052 23 188.945 23.24C188.865 23.4533 188.772 23.5467 188.665 23.52C187.199 23.1467 185.399 22.9333 183.265 22.88V32.84C183.265 33.9333 183.532 34.7467 184.065 35.28C184.625 35.8133 185.412 36.08 186.425 36.08C187.599 36.08 188.665 35.7067 189.625 34.96L189.705 34.92ZM209.661 36.52C209.741 36.52 209.781 36.6 209.781 36.76C209.781 36.92 209.741 37 209.661 37C209.048 37 208.554 36.9867 208.181 36.96L206.021 36.92L203.861 36.96C203.488 36.9867 202.994 37 202.381 37C202.301 37 202.261 36.92 202.261 36.76C202.261 36.6 202.301 36.52 202.381 36.52C203.101 36.52 203.634 36.4533 203.981 36.32C204.328 36.16 204.568 35.8933 204.701 35.52C204.834 35.12 204.901 34.5333 204.901 33.76V27.4C204.901 25.8267 204.594 24.6667 203.981 23.92C203.394 23.1467 202.474 22.76 201.221 22.76C200.394 22.76 199.554 22.9867 198.701 23.44C197.848 23.8667 197.074 24.4667 196.381 25.24V33.76C196.381 34.5333 196.448 35.12 196.581 35.52C196.714 35.8933 196.954 36.16 197.301 36.32C197.648 36.4533 198.181 36.52 198.901 36.52C198.981 36.52 199.021 36.6 199.021 36.76C199.021 36.92 198.981 37 198.901 37C198.288 37 197.794 36.9867 197.421 36.96L195.261 36.92L193.101 36.96C192.728 36.9867 192.234 37 191.621 37C191.541 37 191.501 36.92 191.501 36.76C191.501 36.6 191.541 36.52 191.621 36.52C192.341 36.52 192.874 36.4533 193.221 36.32C193.568 36.16 193.808 35.8933 193.941 35.52C194.074 35.12 194.141 34.5333 194.141 33.76V13.08C194.141 12.12 194.048 11.4267 193.861 11C193.674 10.5733 193.341 10.36 192.861 10.36C192.461 10.36 191.848 10.5467 191.021 10.92H190.941C190.861 10.92 190.794 10.8533 190.741 10.72C190.688 10.5867 190.714 10.5067 190.821 10.48L195.901 8H196.021C196.128 8 196.208 8.04 196.261 8.12C196.341 8.17333 196.381 8.24 196.381 8.32V24.56C197.394 23.3867 198.394 22.5333 199.381 22C200.394 21.44 201.448 21.16 202.541 21.16C204.008 21.16 205.141 21.5733 205.941 22.4C206.741 23.2267 207.141 24.4267 207.141 26V33.76C207.141 34.5333 207.208 35.12 207.341 35.52C207.474 35.8933 207.714 36.16 208.061 36.32C208.408 36.4533 208.941 36.52 209.661 36.52Z" fill="#3F3F3F"/>
<path d="M14.5852 33.8548C14.5852 34.7082 14.6919 35.3348 14.9052 35.7348C15.1452 36.1082 15.5852 36.3748 16.2252 36.5348C16.8919 36.6948 17.9319 36.7748 19.3452 36.7748C19.4252 36.7748 19.4652 36.8548 19.4652 37.0148C19.4652 37.1748 19.4252 37.2548 19.3452 37.2548C18.2519 37.2548 17.3985 37.2415 16.7852 37.2148L13.3052 37.1748L10.6252 37.2148C10.1185 37.2415 9.43855 37.2548 8.58522 37.2548C8.53188 37.2548 8.50522 37.1748 8.50522 37.0148C8.50522 36.8548 8.53188 36.7748 8.58522 36.7748C9.59855 36.7748 10.3319 36.7082 10.7852 36.5748C11.2652 36.4415 11.5852 36.1882 11.7452 35.8148C11.9052 35.4148 11.9852 34.8148 11.9852 34.0148V15.4948C11.9852 14.6948 11.9052 14.1082 11.7452 13.7348C11.5852 13.3615 11.2652 13.1082 10.7852 12.9748C10.3319 12.8148 9.59855 12.7348 8.58522 12.7348C8.53188 12.7348 8.50522 12.6548 8.50522 12.4948C8.50522 12.3348 8.53188 12.2548 8.58522 12.2548L10.5852 12.2948C11.7052 12.3482 12.5985 12.3748 13.2652 12.3748C13.9319 12.3748 14.6786 12.3348 15.5052 12.2548C15.8252 12.2548 16.3319 12.2415 17.0252 12.2148C17.7186 12.1615 18.3186 12.1348 18.8252 12.1348C21.2786 12.1348 23.2386 12.6815 24.7052 13.7748C26.1986 14.8682 26.9452 16.5348 26.9452 18.7748C26.9452 20.5348 26.5052 22.0148 25.6252 23.2148C24.7719 24.4148 23.6652 25.3082 22.3052 25.8948C20.9719 26.4815 19.5852 26.7748 18.1452 26.7748C17.3452 26.7748 16.6919 26.7082 16.1852 26.5748C16.1052 26.5748 16.0652 26.5082 16.0652 26.3748C16.0652 26.2948 16.0786 26.2148 16.1052 26.1348C16.1585 26.0548 16.2119 26.0282 16.2652 26.0548C16.6919 26.1615 17.1719 26.2148 17.7052 26.2148C19.4652 26.2148 20.9452 25.6415 22.1452 24.4948C23.3719 23.3482 23.9852 21.6948 23.9852 19.5348C23.9852 17.4282 23.4119 15.7748 22.2652 14.5748C21.1186 13.3482 19.6519 12.7348 17.8652 12.7348C16.9052 12.7348 16.2119 12.7882 15.7852 12.8948C15.3586 13.0015 15.0519 13.2548 14.8652 13.6548C14.6785 14.0282 14.5852 14.6682 14.5852 15.5748V33.8548ZM36.9265 37.7748C35.3798 37.7748 34.0065 37.4015 32.8065 36.6548C31.6331 35.8815 30.7265 34.8548 30.0865 33.5748C29.4465 32.2682 29.1265 30.8548 29.1265 29.3348C29.1265 27.6015 29.5398 26.1348 30.3665 24.9348C31.2198 23.7082 32.2998 22.8015 33.6065 22.2148C34.9398 21.6015 36.2865 21.2948 37.6465 21.2948C39.2198 21.2948 40.5931 21.6815 41.7665 22.4548C42.9398 23.2282 43.8331 24.2548 44.4465 25.5348C45.0865 26.7882 45.4065 28.1215 45.4065 29.5348C45.4065 31.1882 45.0198 32.6415 44.2465 33.8948C43.4731 35.1215 42.4331 36.0815 41.1265 36.7748C39.8465 37.4415 38.4465 37.7748 36.9265 37.7748ZM38.0865 37.0148C39.5531 37.0148 40.6865 36.4948 41.4865 35.4548C42.2865 34.4148 42.6865 32.8148 42.6865 30.6548C42.6865 29.0015 42.4065 27.5215 41.8465 26.2148C41.3131 24.9082 40.5665 23.8948 39.6065 23.1748C38.6465 22.4282 37.5531 22.0548 36.3265 22.0548C34.8865 22.0548 33.7665 22.5748 32.9665 23.6148C32.1931 24.6548 31.8065 26.1482 31.8065 28.0948C31.8065 29.7215 32.0731 31.2148 32.6065 32.5748C33.1398 33.9348 33.8865 35.0148 34.8465 35.8148C35.8065 36.6148 36.8865 37.0148 38.0865 37.0148ZM52.3071 16.7748C51.7471 16.7748 51.3071 16.6282 50.9871 16.3348C50.6938 16.0415 50.5471 15.6282 50.5471 15.0948C50.5471 14.5615 50.6938 14.1482 50.9871 13.8548C51.3071 13.5615 51.7471 13.4148 52.3071 13.4148C52.8404 13.4148 53.2538 13.5615 53.5471 13.8548C53.8404 14.1482 53.9871 14.5615 53.9871 15.0948C53.9871 15.6282 53.8404 16.0415 53.5471 16.3348C53.2538 16.6282 52.8404 16.7748 52.3071 16.7748ZM48.9471 37.2548C48.8938 37.2548 48.8671 37.1748 48.8671 37.0148C48.8671 36.8548 48.8938 36.7748 48.9471 36.7748C49.6671 36.7748 50.2004 36.7082 50.5471 36.5748C50.9204 36.4148 51.1738 36.1482 51.3071 35.7748C51.4404 35.3748 51.5071 34.7882 51.5071 34.0148V26.5348C51.5071 25.5748 51.4004 24.8815 51.1871 24.4548C51.0004 24.0282 50.6671 23.8148 50.1871 23.8148C49.7071 23.8148 49.1071 24.0015 48.3871 24.3748H48.3471C48.2404 24.3748 48.1604 24.3082 48.1071 24.1748C48.0538 24.0415 48.0671 23.9482 48.1471 23.8948L53.3471 21.4948L53.5071 21.4548C53.5604 21.4548 53.6271 21.4948 53.7071 21.5748C53.7871 21.6282 53.8271 21.6948 53.8271 21.7748C53.8271 21.9615 53.8138 22.4948 53.7871 23.3748C53.7604 24.2548 53.7471 25.2948 53.7471 26.4948V34.0148C53.7471 34.8148 53.8138 35.4015 53.9471 35.7748C54.0804 36.1482 54.3204 36.4148 54.6671 36.5748C55.0138 36.7082 55.5471 36.7748 56.2671 36.7748C56.3471 36.7748 56.3871 36.8548 56.3871 37.0148C56.3871 37.1748 56.3471 37.2548 56.2671 37.2548C55.6538 37.2548 55.1604 37.2415 54.7871 37.2148L52.6271 37.1748L50.4671 37.2148C50.0938 37.2415 49.5871 37.2548 48.9471 37.2548ZM77.5646 36.7748C77.6446 36.7748 77.6846 36.8548 77.6846 37.0148C77.6846 37.1748 77.6446 37.2548 77.5646 37.2548C76.9513 37.2548 76.4713 37.2415 76.1246 37.2148L73.9646 37.1748L71.7646 37.2148C71.4179 37.2415 70.9379 37.2548 70.3246 37.2548C70.2446 37.2548 70.2046 37.1748 70.2046 37.0148C70.2046 36.8548 70.2446 36.7748 70.3246 36.7748C71.0446 36.7748 71.5779 36.7082 71.9246 36.5748C72.2713 36.4148 72.4979 36.1482 72.6046 35.7748C72.7379 35.4015 72.8046 34.8148 72.8046 34.0148V27.5348C72.8046 25.9615 72.4979 24.8015 71.8846 24.0548C71.2979 23.3082 70.3779 22.9348 69.1246 22.9348C68.2979 22.9348 67.4579 23.1615 66.6046 23.6148C65.7779 24.0415 65.0179 24.6415 64.3246 25.4148V34.0148C64.3246 34.8148 64.3779 35.4015 64.4846 35.7748C64.6179 36.1482 64.8579 36.4148 65.2046 36.5748C65.5513 36.7082 66.0846 36.7748 66.8046 36.7748C66.8846 36.7748 66.9246 36.8548 66.9246 37.0148C66.9246 37.1748 66.8846 37.2548 66.8046 37.2548C66.1913 37.2548 65.7113 37.2415 65.3646 37.2148L63.2046 37.1748L61.0046 37.2148C60.6579 37.2415 60.1779 37.2548 59.5646 37.2548C59.4846 37.2548 59.4446 37.1748 59.4446 37.0148C59.4446 36.8548 59.4846 36.7748 59.5646 36.7748C60.2846 36.7748 60.8179 36.7082 61.1646 36.5748C61.5113 36.4148 61.7379 36.1482 61.8446 35.7748C61.9779 35.4015 62.0446 34.8148 62.0446 34.0148V26.0948C62.0446 25.1882 61.9379 24.5348 61.7246 24.1348C61.5113 23.7348 61.1513 23.5348 60.6446 23.5348C60.2179 23.5348 59.4979 23.7348 58.4846 24.1348H58.4046C58.2979 24.1348 58.2179 24.0815 58.1646 23.9748C58.1379 23.8415 58.1779 23.7482 58.2846 23.6948L62.9246 21.4948L63.1646 21.4548C63.4046 21.4548 63.6579 21.7615 63.9246 22.3748C64.1913 22.9882 64.3246 23.7748 64.3246 24.7348C65.3379 23.5615 66.3379 22.6948 67.3246 22.1348C68.3379 21.5748 69.3779 21.2948 70.4446 21.2948C71.9379 21.2948 73.0846 21.7082 73.8846 22.5348C74.6846 23.3615 75.0846 24.5748 75.0846 26.1748V34.0148C75.0846 34.8148 75.1379 35.4015 75.2446 35.7748C75.3779 36.1482 75.6179 36.4148 75.9646 36.5748C76.3113 36.7082 76.8446 36.7748 77.5646 36.7748ZM90.8687 35.1748C90.9753 35.1748 91.0553 35.2415 91.1086 35.3748C91.162 35.4815 91.1487 35.5615 91.0687 35.6148C90.082 36.3882 89.1887 36.9348 88.3887 37.2548C87.6153 37.5748 86.802 37.7348 85.9487 37.7348C84.8287 37.7348 83.9087 37.4815 83.1887 36.9748C82.4687 36.4682 82.1087 35.6282 82.1087 34.4548V25.0548C82.1087 24.3615 82.0553 23.8682 81.9487 23.5748C81.8687 23.2815 81.6953 23.0948 81.4287 23.0148C81.162 22.9082 80.7087 22.8548 80.0686 22.8548C79.962 22.8548 79.9086 22.7748 79.9086 22.6148C79.9086 22.4282 79.962 22.3348 80.0686 22.3348C81.1353 22.3082 82.002 22.0282 82.6687 21.4948C83.3353 20.9348 83.722 20.2015 83.8287 19.2948C83.8287 19.2148 83.9353 19.1748 84.1487 19.1748C84.3353 19.1748 84.4287 19.2148 84.4287 19.2948V22.2548C85.762 22.2282 87.6153 22.0948 89.9887 21.8548C90.042 21.8548 90.0953 21.9615 90.1487 22.1748C90.2287 22.3615 90.2687 22.5748 90.2687 22.8148C90.2687 23.0282 90.2153 23.2548 90.1087 23.4948C90.0287 23.7082 89.9353 23.8015 89.8287 23.7748C88.362 23.4015 86.562 23.1882 84.4287 23.1348V33.0948C84.4287 34.1882 84.6953 35.0015 85.2286 35.5348C85.7887 36.0682 86.5753 36.3348 87.5887 36.3348C88.762 36.3348 89.8287 35.9615 90.7887 35.2148L90.8687 35.1748Z" fill="#3F3F3F"/>
<path d="M66.8944 64.2023V52.3763H70.1704C71.0464 52.3763 71.8144 52.4903 72.4744 52.7183C73.1344 52.9343 73.6444 53.2943 74.0044 53.7983C74.3764 54.2903 74.5624 54.9623 74.5624 55.8143C74.5624 56.6303 74.3824 57.3023 74.0224 57.8303C73.6624 58.3583 73.1584 58.7543 72.5104 59.0183C71.8624 59.2823 71.1064 59.4143 70.2424 59.4143H68.2264V64.2023H66.8944ZM68.2264 58.3163H70.0444C71.1244 58.3163 71.9224 58.1183 72.4384 57.7223C72.9664 57.3143 73.2304 56.6783 73.2304 55.8143C73.2304 54.9263 72.9544 54.3143 72.4024 53.9783C71.8624 53.6303 71.0524 53.4563 69.9724 53.4563H68.2264V58.3163ZM76.8758 64.2023V55.4723H77.9558L78.0638 57.0743H78.1178C78.4178 56.5223 78.7778 56.0843 79.1978 55.7603C79.6298 55.4243 80.0978 55.2563 80.6018 55.2563C80.7818 55.2563 80.9438 55.2743 81.0878 55.3103C81.2318 55.3343 81.3698 55.3763 81.5018 55.4363L81.2498 56.5883C81.1058 56.5403 80.9738 56.5043 80.8538 56.4803C80.7458 56.4563 80.6018 56.4443 80.4218 56.4443C80.0498 56.4443 79.6598 56.6003 79.2518 56.9123C78.8438 57.2123 78.4838 57.7463 78.1718 58.5143V64.2023H76.8758ZM86.323 64.4183C85.615 64.4183 84.955 64.2383 84.343 63.8783C83.731 63.5183 83.239 63.0023 82.867 62.3303C82.495 61.6463 82.309 60.8183 82.309 59.8463C82.309 58.8743 82.495 58.0463 82.867 57.3623C83.239 56.6783 83.731 56.1563 84.343 55.7963C84.955 55.4363 85.615 55.2563 86.323 55.2563C87.031 55.2563 87.685 55.4363 88.285 55.7963C88.897 56.1563 89.389 56.6783 89.761 57.3623C90.145 58.0463 90.337 58.8743 90.337 59.8463C90.337 60.8183 90.145 61.6463 89.761 62.3303C89.389 63.0023 88.897 63.5183 88.285 63.8783C87.685 64.2383 87.031 64.4183 86.323 64.4183ZM86.323 63.3203C86.851 63.3203 87.313 63.1763 87.709 62.8883C88.117 62.6003 88.429 62.1983 88.645 61.6823C88.873 61.1543 88.987 60.5423 88.987 59.8463C88.987 59.1623 88.873 58.5563 88.645 58.0283C88.429 57.5003 88.117 57.0923 87.709 56.8043C87.313 56.5043 86.851 56.3543 86.323 56.3543C85.807 56.3543 85.345 56.5043 84.937 56.8043C84.541 57.0923 84.229 57.5003 84.001 58.0283C83.785 58.5563 83.677 59.1623 83.677 59.8463C83.677 60.5423 83.785 61.1543 84.001 61.6823C84.229 62.1983 84.541 62.6003 84.937 62.8883C85.345 63.1763 85.807 63.3203 86.323 63.3203ZM92.7137 67.9463V55.4723H93.7937L93.9017 56.5163H93.9557C94.3517 56.1683 94.7897 55.8743 95.2697 55.6343C95.7617 55.3823 96.2657 55.2563 96.7817 55.2563C97.5377 55.2563 98.1737 55.4423 98.6897 55.8143C99.2057 56.1743 99.5897 56.6903 99.8417 57.3623C100.106 58.0223 100.238 58.8023 100.238 59.7023C100.238 60.6983 100.058 61.5503 99.6977 62.2583C99.3497 62.9543 98.8877 63.4883 98.3117 63.8603C97.7357 64.2323 97.1177 64.4183 96.4577 64.4183C96.0617 64.4183 95.6537 64.3283 95.2337 64.1483C94.8137 63.9683 94.3937 63.7163 93.9737 63.3923L94.0097 64.9403V67.9463H92.7137ZM96.2417 63.3023C96.7577 63.3023 97.2137 63.1583 97.6097 62.8703C98.0057 62.5823 98.3177 62.1683 98.5457 61.6283C98.7737 61.0883 98.8877 60.4523 98.8877 59.7203C98.8877 59.0603 98.8037 58.4783 98.6357 57.9743C98.4797 57.4703 98.2217 57.0803 97.8617 56.8043C97.5137 56.5163 97.0517 56.3723 96.4757 56.3723C96.0917 56.3723 95.6957 56.4803 95.2877 56.6963C94.8917 56.9003 94.4657 57.2123 94.0097 57.6323V62.3483C94.4417 62.6963 94.8497 62.9423 95.2337 63.0863C95.6177 63.2303 95.9537 63.3023 96.2417 63.3023ZM106.101 64.4183C105.345 64.4183 104.649 64.2383 104.013 63.8783C103.389 63.5063 102.891 62.9843 102.519 62.3123C102.147 61.6283 101.961 60.8063 101.961 59.8463C101.961 58.8983 102.147 58.0823 102.519 57.3983C102.891 56.7143 103.371 56.1863 103.959 55.8143C104.559 55.4423 105.195 55.2563 105.867 55.2563C106.587 55.2563 107.205 55.4243 107.721 55.7603C108.237 56.0963 108.627 56.5703 108.891 57.1823C109.167 57.7823 109.305 58.5023 109.305 59.3423C109.305 59.4863 109.299 59.6303 109.287 59.7743C109.287 59.9063 109.275 60.0263 109.251 60.1343H102.987L102.969 59.1803H108.135C108.135 58.2443 107.937 57.5363 107.541 57.0563C107.145 56.5643 106.593 56.3183 105.885 56.3183C105.453 56.3183 105.033 56.4443 104.625 56.6963C104.217 56.9483 103.881 57.3323 103.617 57.8483C103.353 58.3643 103.221 59.0303 103.221 59.8463C103.221 60.6263 103.359 61.2743 103.635 61.7903C103.911 62.3063 104.277 62.6963 104.733 62.9603C105.201 63.2243 105.711 63.3563 106.263 63.3563C106.707 63.3563 107.103 63.2903 107.451 63.1583C107.811 63.0263 108.153 62.8583 108.477 62.6543L108.963 63.5183C108.591 63.7583 108.171 63.9683 107.703 64.1483C107.247 64.3283 106.713 64.4183 106.101 64.4183ZM111.505 64.2023V55.4723H112.585L112.693 57.0743H112.747C113.047 56.5223 113.407 56.0843 113.827 55.7603C114.259 55.4243 114.727 55.2563 115.231 55.2563C115.411 55.2563 115.573 55.2743 115.717 55.3103C115.861 55.3343 115.999 55.3763 116.131 55.4363L115.879 56.5883C115.735 56.5403 115.603 56.5043 115.483 56.4803C115.375 56.4563 115.231 56.4443 115.051 56.4443C114.679 56.4443 114.289 56.6003 113.881 56.9123C113.473 57.2123 113.113 57.7463 112.801 58.5143V64.2023H111.505ZM120.268 64.4183C119.368 64.4183 118.738 64.1543 118.378 63.6263C118.03 63.0983 117.856 62.4143 117.856 61.5743V56.5523H116.542V55.5623L117.91 55.4723L118.072 53.0063H119.17V55.4723H121.564V56.5523H119.17V61.6103C119.17 62.1503 119.266 62.5763 119.458 62.8883C119.662 63.1883 120.028 63.3383 120.556 63.3383C120.712 63.3383 120.88 63.3143 121.06 63.2663C121.252 63.2183 121.42 63.1643 121.564 63.1043L121.834 64.0943C121.594 64.1783 121.336 64.2503 121.06 64.3103C120.784 64.3823 120.52 64.4183 120.268 64.4183ZM123.581 64.2023V55.4723H124.877V64.2023H123.581ZM124.247 53.6003C123.995 53.6003 123.779 53.5163 123.599 53.3483C123.431 53.1803 123.347 52.9583 123.347 52.6823C123.347 52.4183 123.431 52.2083 123.599 52.0523C123.779 51.8843 123.995 51.8003 124.247 51.8003C124.511 51.8003 124.727 51.8843 124.895 52.0523C125.063 52.2083 125.147 52.4183 125.147 52.6823C125.147 52.9583 125.063 53.1803 124.895 53.3483C124.727 53.5163 124.511 53.6003 124.247 53.6003ZM131.396 64.4183C130.64 64.4183 129.944 64.2383 129.308 63.8783C128.684 63.5063 128.186 62.9843 127.814 62.3123C127.442 61.6283 127.256 60.8063 127.256 59.8463C127.256 58.8983 127.442 58.0823 127.814 57.3983C128.186 56.7143 128.666 56.1863 129.254 55.8143C129.854 55.4423 130.49 55.2563 131.162 55.2563C131.882 55.2563 132.5 55.4243 133.016 55.7603C133.532 56.0963 133.922 56.5703 134.186 57.1823C134.462 57.7823 134.6 58.5023 134.6 59.3423C134.6 59.4863 134.594 59.6303 134.582 59.7743C134.582 59.9063 134.57 60.0263 134.546 60.1343H128.282L128.264 59.1803H133.43C133.43 58.2443 133.232 57.5363 132.836 57.0563C132.44 56.5643 131.888 56.3183 131.18 56.3183C130.748 56.3183 130.328 56.4443 129.92 56.6963C129.512 56.9483 129.176 57.3323 128.912 57.8483C128.648 58.3643 128.516 59.0303 128.516 59.8463C128.516 60.6263 128.654 61.2743 128.93 61.7903C129.206 62.3063 129.572 62.6963 130.028 62.9603C130.496 63.2243 131.006 63.3563 131.558 63.3563C132.002 63.3563 132.398 63.2903 132.746 63.1583C133.106 63.0263 133.448 62.8583 133.772 62.6543L134.258 63.5183C133.886 63.7583 133.466 63.9683 132.998 64.1483C132.542 64.3283 132.008 64.4183 131.396 64.4183ZM139.032 64.4183C138.408 64.4183 137.814 64.3043 137.25 64.0763C136.686 63.8363 136.2 63.5483 135.792 63.2123L136.458 62.3303C136.842 62.6303 137.238 62.8823 137.646 63.0863C138.054 63.2903 138.534 63.3923 139.086 63.3923C139.686 63.3923 140.136 63.2483 140.436 62.9603C140.736 62.6723 140.886 62.3303 140.886 61.9343C140.886 61.6223 140.784 61.3643 140.58 61.1603C140.376 60.9443 140.118 60.7643 139.806 60.6203C139.494 60.4643 139.176 60.3263 138.852 60.2063C138.444 60.0623 138.036 59.8883 137.628 59.6843C137.22 59.4803 136.878 59.2223 136.602 58.9103C136.338 58.5983 136.206 58.1963 136.206 57.7043C136.206 57.0203 136.464 56.4443 136.98 55.9763C137.508 55.4963 138.24 55.2563 139.176 55.2563C139.704 55.2563 140.196 55.3523 140.652 55.5443C141.108 55.7363 141.498 55.9643 141.822 56.2283L141.192 57.0743C140.892 56.8583 140.58 56.6783 140.256 56.5343C139.944 56.3783 139.584 56.3003 139.176 56.3003C138.6 56.3003 138.174 56.4383 137.898 56.7143C137.622 56.9783 137.484 57.2843 137.484 57.6323C137.484 57.9203 137.574 58.1603 137.754 58.3523C137.946 58.5323 138.192 58.6883 138.492 58.8203C138.792 58.9523 139.11 59.0843 139.446 59.2163C139.878 59.3723 140.298 59.5523 140.706 59.7563C141.126 59.9483 141.474 60.2063 141.75 60.5303C142.026 60.8543 142.164 61.2983 142.164 61.8623C142.164 62.3183 142.044 62.7443 141.804 63.1403C141.564 63.5243 141.21 63.8363 140.742 64.0763C140.274 64.3043 139.704 64.4183 139.032 64.4183Z" fill="#3F3F3F"/>
<path d="M102.182 23.0459H106.24V27.2265H102.182V23.0459Z" fill="#EA5656"/>
</svg>
